<?xml version="1.0" encoding="utf-8"?>
<!-- Generator: Adobe Illustrator 24.0.1, SVG Export Plug-In . SVG Version: 6.00 Build 0)  -->
<svg version="1.1" id="Camada_1" xmlns="http://www.w3.org/2000/svg" xmlns:xlink="http://www.w3.org/1999/xlink" x="0px" y="0px"
	 viewBox="0 0 1120 565" style="enable-background:new 0 0 1120 565;" xml:space="preserve">
<style type="text/css">
	.st0{opacity:0.51;fill:none;stroke:#04D361;stroke-width:3;stroke-linecap:round;stroke-linejoin:round;stroke-miterlimit:10;}
	.st1{opacity:0.51;fill:#9871F5;}
	.st2{opacity:0.51;fill:none;stroke:#9871F5;stroke-width:2;stroke-linecap:round;stroke-linejoin:round;}
	.st3{opacity:0.51;fill:none;stroke:#04D361;stroke-width:2;stroke-linecap:round;stroke-linejoin:round;}
	.st4{opacity:0.51;fill:none;stroke:#04D361;stroke-width:2;stroke-linecap:round;stroke-linejoin:round;stroke-miterlimit:10;}
</style>
<path class="st0" d="M1047.1,559.7c-4,0-7.2-3.2-7.2-7.2c0-4,3.2-7.2,7.2-7.2s7.2,3.2,7.2,7.2
	C1054.3,556.5,1051.1,559.7,1047.1,559.7z"/>
<path class="st0" d="M1042.1,557.7l-5.1,5.1"/>
<path class="st0" d="M911.8,39.1l-7.6,7.5"/>
<path class="st0" d="M911.8,46.7l-7.6-7.5"/>
<path class="st0" d="M901,492.9l-7.6,7.5"/>
<path class="st0" d="M901,500.4l-7.6-7.5"/>
<path class="st0" d="M1108,310.1c-3.6,0-6.5-2.9-6.5-6.5c0-3.6,2.9-6.5,6.5-6.5c3.6,0,6.5,2.9,6.5,6.5
	C1114.5,307.2,1111.6,310.1,1108,310.1z"/>
<g>
	<path class="st1" d="M59.2,230.7c0,1.3,1.1,2.3,2.4,2.3c1.3,0,2.4-1.1,2.4-2.3c0-1.3-1.1-2.3-2.4-2.3
		C60.2,228.4,59.2,229.4,59.2,230.7z"/>
	<path class="st1" d="M59.2,247.1c0,1.3,1.1,2.3,2.4,2.3c1.3,0,2.4-1.1,2.4-2.3c0-1.3-1.1-2.3-2.4-2.3
		C60.2,244.8,59.2,245.8,59.2,247.1z"/>
	<path class="st1" d="M59.2,263.5c0,1.3,1.1,2.3,2.4,2.3c1.3,0,2.4-1.1,2.4-2.3c0-1.3-1.1-2.3-2.4-2.3
		C60.2,261.1,59.2,262.2,59.2,263.5z"/>
	<path class="st1" d="M59.2,279.9c0,1.3,1.1,2.3,2.4,2.3c1.3,0,2.4-1.1,2.4-2.3c0-1.3-1.1-2.3-2.4-2.3
		C60.2,277.5,59.2,278.6,59.2,279.9z"/>
	<path class="st1" d="M59.2,296.3c0,1.3,1.1,2.3,2.4,2.3c1.3,0,2.4-1.1,2.4-2.3c0-1.3-1.1-2.3-2.4-2.3
		C60.2,293.9,59.2,295,59.2,296.3z"/>
	<path class="st1" d="M59.2,312.7c0,1.3,1.1,2.3,2.4,2.3c1.3,0,2.4-1.1,2.4-2.3c0-1.3-1.1-2.3-2.4-2.3
		C60.2,310.3,59.2,311.4,59.2,312.7z"/>
	<path class="st1" d="M42.7,230.7c0,1.3,1.1,2.3,2.4,2.3c1.3,0,2.4-1.1,2.4-2.3c0-1.3-1.1-2.3-2.4-2.3
		C43.8,228.4,42.7,229.4,42.7,230.7z"/>
	<path class="st1" d="M42.7,247.1c0,1.3,1.1,2.3,2.4,2.3c1.3,0,2.4-1.1,2.4-2.3c0-1.3-1.1-2.3-2.4-2.3
		C43.8,244.8,42.7,245.8,42.7,247.1z"/>
	<path class="st1" d="M42.7,263.5c0,1.3,1.1,2.3,2.4,2.3c1.3,0,2.4-1.1,2.4-2.3c0-1.3-1.1-2.3-2.4-2.3
		C43.8,261.1,42.7,262.2,42.7,263.5z"/>
	<path class="st1" d="M42.7,279.9c0,1.3,1.1,2.3,2.4,2.3c1.3,0,2.4-1.1,2.4-2.3c0-1.3-1.1-2.3-2.4-2.3
		C43.8,277.5,42.7,278.6,42.7,279.9z"/>
	<path class="st1" d="M42.7,296.3c0,1.3,1.1,2.3,2.4,2.3c1.3,0,2.4-1.1,2.4-2.3c0-1.3-1.1-2.3-2.4-2.3
		C43.8,293.9,42.7,295,42.7,296.3z"/>
	<path class="st1" d="M42.7,312.7c0,1.3,1.1,2.3,2.4,2.3c1.3,0,2.4-1.1,2.4-2.3c0-1.3-1.1-2.3-2.4-2.3
		C43.8,310.3,42.7,311.4,42.7,312.7z"/>
	<path class="st1" d="M26.2,230.7c0,1.3,1.1,2.3,2.4,2.3c1.3,0,2.4-1.1,2.4-2.3c0-1.3-1.1-2.3-2.4-2.3
		C27.3,228.4,26.2,229.4,26.2,230.7z"/>
	<path class="st1" d="M26.2,247.1c0,1.3,1.1,2.3,2.4,2.3c1.3,0,2.4-1.1,2.4-2.3c0-1.3-1.1-2.3-2.4-2.3
		C27.3,244.8,26.2,245.8,26.2,247.1z"/>
	<path class="st1" d="M26.2,263.5c0,1.3,1.1,2.3,2.4,2.3c1.3,0,2.4-1.1,2.4-2.3c0-1.3-1.1-2.3-2.4-2.3
		C27.3,261.1,26.2,262.2,26.2,263.5z"/>
	<path class="st1" d="M26.2,279.9c0,1.3,1.1,2.3,2.4,2.3c1.3,0,2.4-1.1,2.4-2.3c0-1.3-1.1-2.3-2.4-2.3
		C27.3,277.5,26.2,278.6,26.2,279.9z"/>
	<path class="st1" d="M26.2,296.3c0,1.3,1.1,2.3,2.4,2.3c1.3,0,2.4-1.1,2.4-2.3c0-1.3-1.1-2.3-2.4-2.3
		C27.3,293.9,26.2,295,26.2,296.3z"/>
	<path class="st1" d="M26.2,312.7c0,1.3,1.1,2.3,2.4,2.3c1.3,0,2.4-1.1,2.4-2.3c0-1.3-1.1-2.3-2.4-2.3
		C27.3,310.3,26.2,311.4,26.2,312.7z"/>
	<path class="st1" d="M9.7,230.7c0,1.3,1.1,2.3,2.4,2.3c1.3,0,2.4-1.1,2.4-2.3c0-1.3-1.1-2.3-2.4-2.3
		C10.8,228.4,9.7,229.4,9.7,230.7z"/>
	<path class="st1" d="M9.7,247.1c0,1.3,1.1,2.3,2.4,2.3c1.3,0,2.4-1.1,2.4-2.3c0-1.3-1.1-2.3-2.4-2.3
		C10.8,244.8,9.7,245.8,9.7,247.1z"/>
	<path class="st1" d="M9.7,263.5c0,1.3,1.1,2.3,2.4,2.3c1.3,0,2.4-1.1,2.4-2.3c0-1.3-1.1-2.3-2.4-2.3
		C10.8,261.1,9.7,262.2,9.7,263.5z"/>
	<path class="st1" d="M9.7,279.9c0,1.3,1.1,2.3,2.4,2.3c1.3,0,2.4-1.1,2.4-2.3c0-1.3-1.1-2.3-2.4-2.3
		C10.8,277.5,9.7,278.6,9.7,279.9z"/>
	<path class="st1" d="M9.7,296.3c0,1.3,1.1,2.3,2.4,2.3c1.3,0,2.4-1.1,2.4-2.3c0-1.3-1.1-2.3-2.4-2.3C10.8,293.9,9.7,295,9.7,296.3z
		"/>
	<path class="st1" d="M9.7,312.7c0,1.3,1.1,2.3,2.4,2.3c1.3,0,2.4-1.1,2.4-2.3c0-1.3-1.1-2.3-2.4-2.3
		C10.8,310.3,9.7,311.4,9.7,312.7z"/>
</g>
<path class="st1" d="M1044.9,414.7c0,1.3,1.1,2.3,2.4,2.3c1.3,0,2.4-1.1,2.4-2.3c0-1.3-1.1-2.3-2.4-2.3
	C1046,412.3,1044.9,413.4,1044.9,414.7z"/>
<path class="st1" d="M1044.9,431.1c0,1.3,1.1,2.3,2.4,2.3c1.3,0,2.4-1.1,2.4-2.3c0-1.3-1.1-2.3-2.4-2.3
	C1046,428.7,1044.9,429.8,1044.9,431.1z"/>
<path class="st1" d="M1044.9,447.5c0,1.3,1.1,2.3,2.4,2.3c1.3,0,2.4-1.1,2.4-2.3c0-1.3-1.1-2.3-2.4-2.3
	C1046,445.1,1044.9,446.2,1044.9,447.5z"/>
<path class="st1" d="M1028.4,414.7c0,1.3,1.1,2.3,2.4,2.3c1.3,0,2.4-1.1,2.4-2.3c0-1.3-1.1-2.3-2.4-2.3
	C1029.5,412.3,1028.4,413.4,1028.4,414.7z"/>
<path class="st1" d="M1028.4,431.1c0,1.3,1.1,2.3,2.4,2.3c1.3,0,2.4-1.1,2.4-2.3c0-1.3-1.1-2.3-2.4-2.3
	C1029.5,428.7,1028.4,429.8,1028.4,431.1z"/>
<path class="st1" d="M1028.4,447.5c0,1.3,1.1,2.3,2.4,2.3c1.3,0,2.4-1.1,2.4-2.3c0-1.3-1.1-2.3-2.4-2.3
	C1029.5,445.1,1028.4,446.2,1028.4,447.5z"/>
<g>
	<path class="st0" d="M977.9,146.8c-3.6,0-6.5-2.9-6.5-6.5c0-3.6,2.9-6.5,6.5-6.5c3.6,0,6.5,2.9,6.5,6.5
		C984.4,143.9,981.5,146.8,977.9,146.8z"/>
	<path class="st1" d="M1103.1,126c0,1.3,1.1,2.3,2.4,2.3s2.4-1.1,2.4-2.3c0-1.3-1.1-2.3-2.4-2.3S1103.1,124.7,1103.1,126z"/>
	<path class="st1" d="M1103.1,142.3c0,1.3,1.1,2.3,2.4,2.3c1.3,0,2.4-1.1,2.4-2.3c0-1.3-1.1-2.3-2.4-2.3
		C1104.2,140,1103.1,141,1103.1,142.3z"/>
	<path class="st1" d="M1103.1,158.7c0,1.3,1.1,2.3,2.4,2.3c1.3,0,2.4-1.1,2.4-2.3c0-1.3-1.1-2.3-2.4-2.3
		C1104.2,156.4,1103.1,157.4,1103.1,158.7z"/>
	<path class="st1" d="M1086.6,126c0,1.3,1.1,2.3,2.4,2.3c1.3,0,2.4-1.1,2.4-2.3c0-1.3-1.1-2.3-2.4-2.3
		C1087.7,123.6,1086.6,124.7,1086.6,126z"/>
	<path class="st1" d="M1086.6,142.3c0,1.3,1.1,2.3,2.4,2.3c1.3,0,2.4-1.1,2.4-2.3s-1.1-2.3-2.4-2.3
		C1087.7,140,1086.6,141.1,1086.6,142.3z"/>
	<path class="st1" d="M1086.6,158.7c0,1.3,1.1,2.3,2.4,2.3c1.3,0,2.4-1.1,2.4-2.3c0-1.3-1.1-2.3-2.4-2.3
		C1087.7,156.4,1086.6,157.4,1086.6,158.7z"/>
</g>
<path class="st1" d="M759,561c0,1.3,1.1,2.3,2.4,2.3c1.3,0,2.4-1.1,2.4-2.3c0-1.3-1.1-2.3-2.4-2.3C760,558.6,759,559.7,759,561z"/>
<path class="st1" d="M742.5,561c0,1.3,1.1,2.3,2.4,2.3c1.3,0,2.4-1.1,2.4-2.3c0-1.3-1.1-2.3-2.4-2.3
	C743.5,558.6,742.5,559.7,742.5,561z"/>
<path class="st1" d="M726,561c0,1.3,1.1,2.3,2.4,2.3c1.3,0,2.4-1.1,2.4-2.3c0-1.3-1.1-2.3-2.4-2.3C727.1,558.6,726,559.7,726,561z"
	/>
<path class="st1" d="M709.5,561c0,1.3,1.1,2.3,2.4,2.3c1.3,0,2.4-1.1,2.4-2.3c0-1.3-1.1-2.3-2.4-2.3
	C710.6,558.6,709.5,559.7,709.5,561z"/>
<path class="st1" d="M693,561c0,1.3,1.1,2.3,2.4,2.3c1.3,0,2.4-1.1,2.4-2.3c0-1.3-1.1-2.3-2.4-2.3C694.1,558.6,693,559.7,693,561z"
	/>
<path class="st1" d="M676.5,561c0,1.3,1.1,2.3,2.4,2.3c1.3,0,2.4-1.1,2.4-2.3c0-1.3-1.1-2.3-2.4-2.3
	C677.6,558.6,676.5,559.7,676.5,561z"/>
<path class="st1" d="M660.1,561c0,1.3,1.1,2.3,2.4,2.3s2.4-1.1,2.4-2.3c0-1.3-1.1-2.3-2.4-2.3S660.1,559.7,660.1,561z"/>
<path class="st1" d="M759,544.6c0,1.3,1.1,2.3,2.4,2.3c1.3,0,2.4-1.1,2.4-2.3c0-1.3-1.1-2.3-2.4-2.3C760,542.2,759,543.3,759,544.6z
	"/>
<path class="st1" d="M742.5,544.6c0,1.3,1.1,2.3,2.4,2.3c1.3,0,2.4-1.1,2.4-2.3c0-1.3-1.1-2.3-2.4-2.3
	C743.5,542.2,742.5,543.3,742.5,544.6z"/>
<path class="st1" d="M726,544.6c0,1.3,1.1,2.3,2.4,2.3c1.3,0,2.4-1.1,2.4-2.3c0-1.3-1.1-2.3-2.4-2.3
	C727.1,542.2,726,543.3,726,544.6z"/>
<path class="st1" d="M709.5,544.6c0,1.3,1.1,2.3,2.4,2.3c1.3,0,2.4-1.1,2.4-2.3c0-1.3-1.1-2.3-2.4-2.3
	C710.6,542.2,709.5,543.3,709.5,544.6z"/>
<path class="st1" d="M693,544.6c0,1.3,1.1,2.3,2.4,2.3c1.3,0,2.4-1.1,2.4-2.3c0-1.3-1.1-2.3-2.4-2.3
	C694.1,542.2,693,543.3,693,544.6z"/>
<path class="st1" d="M676.5,544.6c0,1.3,1.1,2.3,2.4,2.3c1.3,0,2.4-1.1,2.4-2.3c0-1.3-1.1-2.3-2.4-2.3
	C677.6,542.2,676.5,543.3,676.5,544.6z"/>
<path class="st1" d="M660.1,544.6c0,1.3,1.1,2.3,2.4,2.3s2.4-1.1,2.4-2.3c0-1.3-1.1-2.3-2.4-2.3S660.1,543.3,660.1,544.6z"/>
<path class="st1" d="M759,528.2c0,1.3,1.1,2.3,2.4,2.3c1.3,0,2.4-1.1,2.4-2.3c0-1.3-1.1-2.3-2.4-2.3C760,525.8,759,526.9,759,528.2z
	"/>
<path class="st1" d="M742.5,528.2c0,1.3,1.1,2.3,2.4,2.3c1.3,0,2.4-1.1,2.4-2.3c0-1.3-1.1-2.3-2.4-2.3
	C743.5,525.8,742.5,526.9,742.5,528.2z"/>
<path class="st1" d="M726,528.2c0,1.3,1.1,2.3,2.4,2.3c1.3,0,2.4-1.1,2.4-2.3c0-1.3-1.1-2.3-2.4-2.3
	C727.1,525.8,726,526.9,726,528.2z"/>
<path class="st1" d="M709.5,528.2c0,1.3,1.1,2.3,2.4,2.3c1.3,0,2.4-1.1,2.4-2.3c0-1.3-1.1-2.3-2.4-2.3
	C710.6,525.8,709.5,526.9,709.5,528.2z"/>
<path class="st1" d="M693,528.2c0,1.3,1.1,2.3,2.4,2.3c1.3,0,2.4-1.1,2.4-2.3c0-1.3-1.1-2.3-2.4-2.3
	C694.1,525.8,693,526.9,693,528.2z"/>
<path class="st1" d="M676.5,528.2c0,1.3,1.1,2.3,2.4,2.3c1.3,0,2.4-1.1,2.4-2.3c0-1.3-1.1-2.3-2.4-2.3
	C677.6,525.8,676.5,526.9,676.5,528.2z"/>
<path class="st1" d="M660.1,528.2c0,1.3,1.1,2.3,2.4,2.3s2.4-1.1,2.4-2.3c0-1.3-1.1-2.3-2.4-2.3S660.1,526.9,660.1,528.2z"/>
<path class="st1" d="M759,511.8c0,1.3,1.1,2.3,2.4,2.3c1.3,0,2.4-1.1,2.4-2.3c0-1.3-1.1-2.3-2.4-2.3C760,509.4,759,510.5,759,511.8z
	"/>
<path class="st1" d="M742.5,511.8c0,1.3,1.1,2.3,2.4,2.3c1.3,0,2.4-1.1,2.4-2.3c0-1.3-1.1-2.3-2.4-2.3
	C743.5,509.4,742.5,510.5,742.5,511.8z"/>
<path class="st1" d="M726,511.8c0,1.3,1.1,2.3,2.4,2.3c1.3,0,2.4-1.1,2.4-2.3c0-1.3-1.1-2.3-2.4-2.3
	C727.1,509.4,726,510.5,726,511.8z"/>
<path class="st1" d="M709.5,511.8c0,1.3,1.1,2.3,2.4,2.3c1.3,0,2.4-1.1,2.4-2.3c0-1.3-1.1-2.3-2.4-2.3
	C710.6,509.4,709.5,510.5,709.5,511.8z"/>
<path class="st1" d="M693,511.8c0,1.3,1.1,2.3,2.4,2.3c1.3,0,2.4-1.1,2.4-2.3c0-1.3-1.1-2.3-2.4-2.3
	C694.1,509.4,693,510.5,693,511.8z"/>
<path class="st1" d="M676.5,511.8c0,1.3,1.1,2.3,2.4,2.3c1.3,0,2.4-1.1,2.4-2.3c0-1.3-1.1-2.3-2.4-2.3
	C677.6,509.4,676.5,510.5,676.5,511.8z"/>
<path class="st1" d="M660.1,511.8c0,1.3,1.1,2.3,2.4,2.3c1.3,0,2.4-1.1,2.4-2.3c0-1.3-1.1-2.3-2.4-2.3
	C661.1,509.4,660.1,510.5,660.1,511.8z"/>
<polyline class="st2" points="883.1,303.2 889.1,297.2 883.1,291.2 "/>
<circle class="st2" cx="983.9" cy="403.8" r="3"/>
<circle class="st2" cx="971.9" cy="391.8" r="3"/>
<path class="st2" d="M978.9,391.8h3c1.1,0,2,0.9,2,2v7"/>
<line class="st2" x1="971.9" y1="394.8" x2="971.9" y2="406.8"/>
<circle class="st3" cx="877.5" cy="159.6" r="3"/>
<circle class="st3" cx="865.5" cy="147.6" r="3"/>
<path class="st3" d="M865.5,162.6v-12c0,5,4,9,9,9"/>
<path class="st3" d="M908.4,248.1h16c1.1,0,2,0.9,2,2v10c0,1.1-0.9,2-2,2h-16c-1.1,0-2-0.9-2-2v-10
	C906.4,249,907.3,248.1,908.4,248.1z"/>
<path class="st4" d="M920.4,262.1v-16c0-1.1-0.9-2-2-2h-4c-1.1,0-2,0.9-2,2v16"/>
<path class="st2" d="M841.4,260.7h12c1.1,0,2,0.9,2,2v12c0,1.1-0.9,2-2,2h-12c-1.1,0-2-0.9-2-2v-12
	C839.4,261.6,840.2,260.7,841.4,260.7z"/>
<rect x="844.4" y="265.7" class="st2" width="6" height="6"/>
<line class="st2" x1="844.4" y1="257.7" x2="844.4" y2="260.7"/>
<line class="st2" x1="850.4" y1="257.7" x2="850.4" y2="260.7"/>
<line class="st2" x1="844.4" y1="276.7" x2="844.4" y2="279.7"/>
<line class="st2" x1="850.4" y1="276.7" x2="850.4" y2="279.7"/>
<line class="st2" x1="855.4" y1="265.7" x2="858.4" y2="265.7"/>
<line class="st2" x1="855.4" y1="270.7" x2="858.4" y2="270.7"/>
<path class="st3" d="M727.9,248.7c-2.1-2.1-5.6-2.1-7.8,0c0,0,0,0,0,0l-1.1,1.1l-1.1-1.1c-2.1-2.1-5.6-2.1-7.8,0s-2.1,5.6,0,7.8
	l1.1,1.1l7.8,7.8l7.8-7.8l1.1-1.1C730.1,254.3,730.1,250.8,727.9,248.7C727.9,248.7,727.9,248.7,727.9,248.7z"/>
<polyline class="st2" points="1058.9,309.3 1064.9,303.3 1058.9,297.3 "/>
<line class="st2" x1="1066.9" y1="311.3" x2="1074.9" y2="311.3"/>
<path class="st3" d="M1089.9,241.8h16c1.1,0,2,0.9,2,2v10c0,1.1-0.9,2-2,2h-16c-1.1,0-2-0.9-2-2v-10
	C1087.9,242.7,1088.8,241.8,1089.9,241.8z"/>
<path class="st4" d="M1101.9,255.8v-16c0-1.1-0.9-2-2-2h-4c-1.1,0-2,0.9-2,2v16"/>
<path class="st2" d="M962.9,295.2h12c1.1,0,2,0.9,2,2v12c0,1.1-0.9,2-2,2h-12c-1.1,0-2-0.9-2-2v-12
	C960.9,296.1,961.8,295.2,962.9,295.2z"/>
<rect x="965.9" y="300.2" class="st2" width="6" height="6"/>
<line class="st2" x1="965.9" y1="292.2" x2="965.9" y2="295.2"/>
<line class="st2" x1="971.9" y1="292.2" x2="971.9" y2="295.2"/>
<line class="st2" x1="965.9" y1="311.2" x2="965.9" y2="314.2"/>
<line class="st2" x1="971.9" y1="311.2" x2="971.9" y2="314.2"/>
<line class="st2" x1="976.9" y1="300.2" x2="979.9" y2="300.2"/>
<line class="st2" x1="976.9" y1="305.2" x2="979.9" y2="305.2"/>
<line class="st2" x1="957.9" y1="300.2" x2="960.9" y2="300.2"/>
<line class="st2" x1="957.9" y1="305.2" x2="960.9" y2="305.2"/>
<path class="st3" d="M1008.7,239.3c-2.1-2.1-5.6-2.1-7.8,0c0,0,0,0,0,0l-1.1,1.1l-1.1-1.1c-2.1-2.1-5.6-2.1-7.8,0
	c-2.1,2.1-2.1,5.6,0,7.8l1.1,1.1l7.8,7.8l7.8-7.8l1.1-1.1C1010.9,245,1010.9,241.5,1008.7,239.3
	C1008.7,239.3,1008.7,239.3,1008.7,239.3z"/>
<polyline class="st2" points="1101.6,73.3 1107.6,67.3 1101.6,61.3 "/>
<line class="st2" x1="1109.6" y1="75.3" x2="1117.6" y2="75.3"/>
<path class="st3" d="M1089.9,17.1h16c1.1,0,2,0.9,2,2v10c0,1.1-0.9,2-2,2h-16c-1.1,0-2-0.9-2-2v-10
	C1087.9,18,1088.8,17.1,1089.9,17.1z"/>
<path class="st4" d="M1101.9,31.1v-16c0-1.1-0.9-2-2-2h-4c-1.1,0-2,0.9-2,2v16"/>
<path class="st2" d="M1059.9,30.7h12c1.1,0,2,0.9,2,2v12c0,1.1-0.9,2-2,2h-12c-1.1,0-2-0.9-2-2v-12
	C1057.9,31.6,1058.7,30.7,1059.9,30.7z"/>
<rect x="1062.9" y="35.7" class="st2" width="6" height="6"/>
<line class="st2" x1="1062.9" y1="27.7" x2="1062.9" y2="30.7"/>
<line class="st2" x1="1068.9" y1="27.7" x2="1068.9" y2="30.7"/>
<line class="st2" x1="1062.9" y1="46.7" x2="1062.9" y2="49.7"/>
<line class="st2" x1="1068.9" y1="46.7" x2="1068.9" y2="49.7"/>
<line class="st2" x1="1073.9" y1="35.7" x2="1076.9" y2="35.7"/>
<line class="st2" x1="1073.9" y1="40.7" x2="1076.9" y2="40.7"/>
<line class="st2" x1="1054.9" y1="35.7" x2="1057.9" y2="35.7"/>
<line class="st2" x1="1054.9" y1="40.7" x2="1057.9" y2="40.7"/>
<path class="st3" d="M1051.5,3.3c-2.1-2.1-5.6-2.1-7.8,0c0,0,0,0,0,0l-1.1,1.1l-1.1-1.1c-2.1-2.1-5.6-2.1-7.8,0
	c-2.1,2.1-2.1,5.6,0,7.8l1.1,1.1l7.8,7.8l7.8-7.8l1.1-1.1C1053.6,8.9,1053.6,5.4,1051.5,3.3C1051.5,3.3,1051.5,3.3,1051.5,3.3z"/>
<path class="st0" d="M838.7,446.8c-3.6,0-6.5-2.9-6.5-6.5c0-3.6,2.9-6.5,6.5-6.5c3.6,0,6.5,2.9,6.5,6.5
	C845.2,443.9,842.3,446.8,838.7,446.8z"/>
<path class="st1" d="M908.9,390c0,1.3,1.1,2.3,2.4,2.3s2.4-1.1,2.4-2.3c0-1.3-1.1-2.3-2.4-2.3S908.9,388.7,908.9,390z"/>
<path class="st1" d="M908.9,406.3c0,1.3,1.1,2.3,2.4,2.3c1.3,0,2.4-1.1,2.4-2.3c0-1.3-1.1-2.3-2.4-2.3
	C910,404,908.9,405,908.9,406.3z"/>
<path class="st1" d="M908.9,422.7c0,1.3,1.1,2.3,2.4,2.3c1.3,0,2.4-1.1,2.4-2.3c0-1.3-1.1-2.3-2.4-2.3
	C910,420.4,908.9,421.4,908.9,422.7z"/>
<path class="st1" d="M892.4,390c0,1.3,1.1,2.3,2.4,2.3c1.3,0,2.4-1.1,2.4-2.3c0-1.3-1.1-2.3-2.4-2.3
	C893.5,387.6,892.4,388.7,892.4,390z"/>
<path class="st1" d="M892.4,406.3c0,1.3,1.1,2.3,2.4,2.3c1.3,0,2.4-1.1,2.4-2.3s-1.1-2.3-2.4-2.3C893.5,404,892.4,405,892.4,406.3z"
	/>
<path class="st1" d="M892.4,422.7c0,1.3,1.1,2.3,2.4,2.3c1.3,0,2.4-1.1,2.4-2.3c0-1.3-1.1-2.3-2.4-2.3
	C893.5,420.4,892.4,421.4,892.4,422.7z"/>
<path class="st1" d="M859.5,182.7c0,1.3,1.1,2.3,2.4,2.3c1.3,0,2.4-1.1,2.4-2.3c0-1.3-1.1-2.3-2.4-2.3
	C860.6,180.4,859.5,181.4,859.5,182.7z"/>
<path class="st1" d="M859.5,199.1c0,1.3,1.1,2.3,2.4,2.3c1.3,0,2.4-1.1,2.4-2.3c0-1.3-1.1-2.3-2.4-2.3
	C860.6,196.8,859.5,197.8,859.5,199.1z"/>
<path class="st1" d="M859.5,215.5c0,1.3,1.1,2.3,2.4,2.3c1.3,0,2.4-1.1,2.4-2.3c0-1.3-1.1-2.3-2.4-2.3
	C860.6,213.2,859.5,214.2,859.5,215.5z"/>
<path class="st1" d="M843,182.7c0,1.3,1.1,2.3,2.4,2.3c1.3,0,2.4-1.1,2.4-2.3c0-1.3-1.1-2.3-2.4-2.3
	C844.1,180.4,843,181.4,843,182.7z"/>
<path class="st1" d="M843,199.1c0,1.3,1.1,2.3,2.4,2.3c1.3,0,2.4-1.1,2.4-2.3s-1.1-2.3-2.4-2.3C844.1,196.8,843,197.8,843,199.1z"/>
<path class="st1" d="M843,215.5c0,1.3,1.1,2.3,2.4,2.3c1.3,0,2.4-1.1,2.4-2.3c0-1.3-1.1-2.3-2.4-2.3
	C844.1,213.2,843,214.2,843,215.5z"/>
<path class="st3" d="M956.9,192.1h16c1.1,0,2,0.9,2,2v10c0,1.1-0.9,2-2,2h-16c-1.1,0-2-0.9-2-2v-10
	C954.9,193,955.8,192.1,956.9,192.1z"/>
<path class="st4" d="M968.9,206.1v-16c0-1.1-0.9-2-2-2h-4c-1.1,0-2,0.9-2,2v16"/>
<polyline class="st2" points="838,328 849,339 843.5,344.5 843.5,322.5 849,328 838,339 "/>
<polyline class="st2" points="833.2,30.2 844.2,41.2 838.7,46.7 838.7,24.7 844.2,30.2 833.2,41.2 "/>
<path class="st1" d="M932.3,126c0,1.3,1.1,2.3,2.4,2.3c1.3,0,2.4-1.1,2.4-2.3c0-1.3-1.1-2.3-2.4-2.3
	C933.3,123.6,932.3,124.7,932.3,126z"/>
<path class="st1" d="M932.3,142.3c0,1.3,1.1,2.3,2.4,2.3c1.3,0,2.4-1.1,2.4-2.3s-1.1-2.3-2.4-2.3C933.3,140,932.3,141,932.3,142.3z"
	/>
<path class="st1" d="M932.3,158.7c0,1.3,1.1,2.3,2.4,2.3c1.3,0,2.4-1.1,2.4-2.3c0-1.3-1.1-2.3-2.4-2.3
	C933.3,156.4,932.3,157.4,932.3,158.7z"/>
<path class="st1" d="M915.8,126c0,1.3,1.1,2.3,2.4,2.3c1.3,0,2.4-1.1,2.4-2.3c0-1.3-1.1-2.3-2.4-2.3
	C916.8,123.6,915.8,124.7,915.8,126z"/>
<path class="st1" d="M915.8,142.3c0,1.3,1.1,2.3,2.4,2.3c1.3,0,2.4-1.1,2.4-2.3s-1.1-2.3-2.4-2.3C916.8,140,915.8,141,915.8,142.3z"
	/>
<path class="st1" d="M915.8,158.7c0,1.3,1.1,2.3,2.4,2.3c1.3,0,2.4-1.1,2.4-2.3c0-1.3-1.1-2.3-2.4-2.3
	C916.8,156.4,915.8,157.4,915.8,158.7z"/>
<path class="st1" d="M1000.9,58.3c0,1.3,1.1,2.3,2.4,2.3c1.3,0,2.4-1.1,2.4-2.3c0-1.3-1.1-2.3-2.4-2.3
	C1001.9,55.9,1000.9,57,1000.9,58.3z"/>
<path class="st1" d="M1000.9,74.7c0,1.3,1.1,2.3,2.4,2.3c1.3,0,2.4-1.1,2.4-2.3c0-1.3-1.1-2.3-2.4-2.3
	C1001.9,72.3,1000.9,73.4,1000.9,74.7z"/>
<path class="st1" d="M1000.9,91.1c0,1.3,1.1,2.3,2.4,2.3c1.3,0,2.4-1.1,2.4-2.3c0-1.3-1.1-2.3-2.4-2.3
	C1001.9,88.7,1000.9,89.8,1000.9,91.1z"/>
<path class="st1" d="M984.4,58.3c0,1.3,1.1,2.3,2.4,2.3c1.3,0,2.4-1.1,2.4-2.3c0-1.3-1.1-2.3-2.4-2.3
	C985.4,55.9,984.4,57,984.4,58.3z"/>
<path class="st1" d="M984.4,74.7c0,1.3,1.1,2.3,2.4,2.3c1.3,0,2.4-1.1,2.4-2.3c0-1.3-1.1-2.3-2.4-2.3
	C985.4,72.3,984.4,73.4,984.4,74.7z"/>
<path class="st1" d="M984.4,91.1c0,1.3,1.1,2.3,2.4,2.3c1.3,0,2.4-1.1,2.4-2.3c0-1.3-1.1-2.3-2.4-2.3
	C985.4,88.7,984.4,89.8,984.4,91.1z"/>
<path class="st4" d="M764.7,308.9l-10.7,7.7l-10.6-7.7c-0.3-0.2-0.4-0.6-0.3-0.9l1.2-3.8l2.4-7.5c0-0.1,0.1-0.1,0.1-0.2
	c0.2-0.2,0.4-0.2,0.6,0c0.1,0,0.1,0.1,0.1,0.2l2.4,7.5h8.1l2.4-7.5c0-0.1,0.1-0.1,0.1-0.2c0.2-0.2,0.4-0.2,0.6,0
	c0.1,0,0.1,0.1,0.1,0.2l2.4,7.5l1.3,3.8C765.2,308.3,765,308.7,764.7,308.9z"/>
<path class="st0" d="M-37.4,20.4L-45,28"/>
<path class="st0" d="M-37.4,28l-7.6-7.5"/>
<g>
	<path class="st0" d="M28.7,128.1c-3.6,0-6.5-2.9-6.5-6.5c0-3.6,2.9-6.5,6.5-6.5c3.6,0,6.5,2.9,6.5,6.5
		C35.2,125.2,32.3,128.1,28.7,128.1z"/>
	<path class="st1" d="M153.9,107.3c0,1.3,1.1,2.3,2.4,2.3c1.3,0,2.4-1.1,2.4-2.3c0-1.3-1.1-2.3-2.4-2.3
		C155,104.9,153.9,106,153.9,107.3z"/>
	<path class="st1" d="M153.9,123.6c0,1.3,1.1,2.3,2.4,2.3c1.3,0,2.4-1.1,2.4-2.3c0-1.3-1.1-2.3-2.4-2.3
		C155,121.3,153.9,122.3,153.9,123.6z"/>
	<path class="st1" d="M153.9,140c0,1.3,1.1,2.3,2.4,2.3c1.3,0,2.4-1.1,2.4-2.3c0-1.3-1.1-2.3-2.4-2.3
		C155,137.7,153.9,138.7,153.9,140z"/>
	<path class="st1" d="M137.4,107.3c0,1.3,1.1,2.3,2.4,2.3c1.3,0,2.4-1.1,2.4-2.3c0-1.3-1.1-2.3-2.4-2.3
		C138.5,104.9,137.4,106,137.4,107.3z"/>
	<path class="st1" d="M137.4,123.6c0,1.3,1.1,2.3,2.4,2.3c1.3,0,2.4-1.1,2.4-2.3c0-1.3-1.1-2.3-2.4-2.3
		C138.5,121.3,137.4,122.4,137.4,123.6z"/>
	<path class="st1" d="M137.4,140c0,1.3,1.1,2.3,2.4,2.3c1.3,0,2.4-1.1,2.4-2.3c0-1.3-1.1-2.3-2.4-2.3
		C138.5,137.7,137.4,138.7,137.4,140z"/>
</g>
<circle class="st3" cx="-71.8" cy="140.9" r="3"/>
<circle class="st3" cx="-83.8" cy="128.9" r="3"/>
<path class="st3" d="M-83.8,143.9v-12c0,5,4,9,9,9"/>
<polyline class="st2" points="152.4,54.6 158.4,48.6 152.4,42.6 "/>
<line class="st2" x1="160.4" y1="56.6" x2="168.4" y2="56.6"/>
<path class="st3" d="M140.7-1.6h16c1.1,0,2,0.9,2,2v10c0,1.1-0.9,2-2,2h-16c-1.1,0-2-0.9-2-2v-10C138.7-0.7,139.6-1.6,140.7-1.6z"/>
<path class="st4" d="M152.7,12.4v-16c0-1.1-0.9-2-2-2h-4c-1.1,0-2,0.9-2,2v16"/>
<path class="st2" d="M110.6,12h12c1.1,0,2,0.9,2,2v12c0,1.1-0.9,2-2,2h-12c-1.1,0-2-0.9-2-2V14C108.6,12.9,109.5,12,110.6,12z"/>
<rect x="113.6" y="17" class="st2" width="6" height="6"/>
<line class="st2" x1="113.6" y1="9" x2="113.6" y2="12"/>
<line class="st2" x1="119.6" y1="9" x2="119.6" y2="12"/>
<line class="st2" x1="113.6" y1="28" x2="113.6" y2="31"/>
<line class="st2" x1="119.6" y1="28" x2="119.6" y2="31"/>
<line class="st2" x1="124.6" y1="17" x2="127.6" y2="17"/>
<line class="st2" x1="124.6" y1="22" x2="127.6" y2="22"/>
<line class="st2" x1="105.6" y1="17" x2="108.6" y2="17"/>
<line class="st2" x1="105.6" y1="22" x2="108.6" y2="22"/>
<path class="st3" d="M102.3-15.4c-2.1-2.1-5.6-2.1-7.8,0c0,0,0,0,0,0l-1.1,1.1l-1.1-1.1c-2.1-2.1-5.6-2.1-7.8,0
	c-2.1,2.1-2.1,5.6,0,7.8l1.1,1.1l7.8,7.8l7.8-7.8l1.1-1.1C104.4-9.8,104.4-13.3,102.3-15.4C102.3-15.4,102.3-15.4,102.3-15.4z"/>
<path class="st1" d="M-89.7,164c0,1.3,1.1,2.3,2.4,2.3c1.3,0,2.4-1.1,2.4-2.3c0-1.3-1.1-2.3-2.4-2.3
	C-88.6,161.7-89.7,162.7-89.7,164z"/>
<path class="st1" d="M-89.7,180.4c0,1.3,1.1,2.3,2.4,2.3c1.3,0,2.4-1.1,2.4-2.3s-1.1-2.3-2.4-2.3C-88.6,178.1-89.7,179.1-89.7,180.4
	z"/>
<path class="st1" d="M-89.7,196.8c0,1.3,1.1,2.3,2.4,2.3c1.3,0,2.4-1.1,2.4-2.3c0-1.3-1.1-2.3-2.4-2.3
	C-88.6,194.5-89.7,195.5-89.7,196.8z"/>
<path class="st1" d="M-106.2,164c0,1.3,1.1,2.3,2.4,2.3c1.3,0,2.4-1.1,2.4-2.3c0-1.3-1.1-2.3-2.4-2.3
	C-105.1,161.7-106.2,162.7-106.2,164z"/>
<path class="st1" d="M-106.2,180.4c0,1.3,1.1,2.3,2.4,2.3c1.3,0,2.4-1.1,2.4-2.3c0-1.3-1.1-2.3-2.4-2.3
	C-105.1,178.1-106.2,179.1-106.2,180.4z"/>
<path class="st1" d="M-106.2,196.8c0,1.3,1.1,2.3,2.4,2.3c1.3,0,2.4-1.1,2.4-2.3c0-1.3-1.1-2.3-2.4-2.3
	C-105.1,194.5-106.2,195.5-106.2,196.8z"/>
<path class="st3" d="M7.7,173.4h16c1.1,0,2,0.9,2,2v10c0,1.1-0.9,2-2,2h-16c-1.1,0-2-0.9-2-2v-10C5.7,174.3,6.6,173.4,7.7,173.4z"/>
<path class="st4" d="M19.7,187.4v-16c0-1.1-0.9-2-2-2h-4c-1.1,0-2,0.9-2,2v16"/>
<polyline class="st2" points="-116,11.5 -105,22.5 -110.5,28 -110.5,6 -105,11.5 -116,22.5 "/>
<path class="st1" d="M-16.9,107.3c0,1.3,1.1,2.3,2.4,2.3c1.3,0,2.4-1.1,2.4-2.3c0-1.3-1.1-2.3-2.4-2.3
	C-15.9,104.9-16.9,106-16.9,107.3z"/>
<path class="st1" d="M-16.9,123.6c0,1.3,1.1,2.3,2.4,2.3c1.3,0,2.4-1.1,2.4-2.3c0-1.3-1.1-2.3-2.4-2.3
	C-15.9,121.3-16.9,122.3-16.9,123.6z"/>
<path class="st1" d="M-16.9,140c0,1.3,1.1,2.3,2.4,2.3c1.3,0,2.4-1.1,2.4-2.3c0-1.3-1.1-2.3-2.4-2.3
	C-15.9,137.7-16.9,138.7-16.9,140z"/>
<path class="st1" d="M-33.4,107.3c0,1.3,1.1,2.3,2.4,2.3c1.3,0,2.4-1.1,2.4-2.3c0-1.3-1.1-2.3-2.4-2.3
	C-32.4,104.9-33.4,106-33.4,107.3z"/>
<path class="st1" d="M-33.4,123.6c0,1.3,1.1,2.3,2.4,2.3c1.3,0,2.4-1.1,2.4-2.3c0-1.3-1.1-2.3-2.4-2.3
	C-32.4,121.3-33.4,122.3-33.4,123.6z"/>
<path class="st1" d="M-33.4,140c0,1.3,1.1,2.3,2.4,2.3c1.3,0,2.4-1.1,2.4-2.3c0-1.3-1.1-2.3-2.4-2.3
	C-32.4,137.7-33.4,138.7-33.4,140z"/>
<path class="st1" d="M51.7,39.6c0,1.3,1.1,2.3,2.4,2.3c1.3,0,2.4-1.1,2.4-2.3c0-1.3-1.1-2.3-2.4-2.3C52.7,37.2,51.7,38.3,51.7,39.6z
	"/>
<path class="st1" d="M51.7,56c0,1.3,1.1,2.3,2.4,2.3c1.3,0,2.4-1.1,2.4-2.3s-1.1-2.3-2.4-2.3C52.7,53.6,51.7,54.7,51.7,56z"/>
<path class="st1" d="M51.7,72.4c0,1.3,1.1,2.3,2.4,2.3c1.3,0,2.4-1.1,2.4-2.3c0-1.3-1.1-2.3-2.4-2.3C52.7,70,51.7,71.1,51.7,72.4z"
	/>
<path class="st1" d="M35.2,39.6c0,1.3,1.1,2.3,2.4,2.3c1.3,0,2.4-1.1,2.4-2.3c0-1.3-1.1-2.3-2.4-2.3C36.2,37.2,35.2,38.3,35.2,39.6z
	"/>
<path class="st1" d="M35.2,56c0,1.3,1.1,2.3,2.4,2.3c1.3,0,2.4-1.1,2.4-2.3s-1.1-2.3-2.4-2.3C36.2,53.6,35.2,54.7,35.2,56z"/>
<path class="st1" d="M35.2,72.4c0,1.3,1.1,2.3,2.4,2.3c1.3,0,2.4-1.1,2.4-2.3c0-1.3-1.1-2.3-2.4-2.3C36.2,70,35.2,71.1,35.2,72.4z"
	/>
</svg>
