<?xml version="1.0" encoding="utf-8"?>
<!-- Generator: Adobe Illustrator 24.0.1, SVG Export Plug-In . SVG Version: 6.00 Build 0)  -->
<svg version="1.1" id="Camada_1" xmlns="http://www.w3.org/2000/svg" xmlns:xlink="http://www.w3.org/1999/xlink" x="0px" y="0px"
	 viewBox="0 0 1120 565" style="enable-background:new 0 0 1120 565;" xml:space="preserve">
<style type="text/css">
	.st0{opacity:0.51;fill:none;stroke:#04D361;stroke-width:3;stroke-linecap:round;stroke-linejoin:round;stroke-miterlimit:10;}
	.st1{opacity:0.51;fill:#9871F5;}
	.st2{opacity:0.51;fill:none;stroke:#9871F5;stroke-width:2;stroke-linecap:round;stroke-linejoin:round;}
	.st3{opacity:0.51;fill:none;stroke:#04D361;stroke-width:2;stroke-linecap:round;stroke-linejoin:round;}
</style>
<path class="st0" d="M1035,544c-4,0-7.2-3.2-7.2-7.2c0-4,3.2-7.2,7.2-7.2c4,0,7.2,3.2,7.2,7.2C1042.2,540.8,1039,544,1035,544z"/>
<path class="st0" d="M1030,542l-5.1,5.1"/>
<path class="st0" d="M899.7,23.4l-7.6,7.5"/>
<path class="st0" d="M899.7,31l-7.6-7.5"/>
<path class="st0" d="M888.9,477.2l-7.6,7.5"/>
<path class="st0" d="M888.9,484.7l-7.6-7.5"/>
<path class="st0" d="M965.8,131.1c-3.6,0-6.5-2.9-6.5-6.5c0-3.6,2.9-6.5,6.5-6.5c3.6,0,6.5,2.9,6.5,6.5
	C972.3,128.2,969.3,131.1,965.8,131.1z"/>
<path class="st0" d="M1095.9,294.3c-3.6,0-6.5-2.9-6.5-6.5c0-3.6,2.9-6.5,6.5-6.5c3.6,0,6.5,2.9,6.5,6.5
	C1102.4,291.4,1099.5,294.3,1095.9,294.3z"/>
<path class="st1" d="M763.9,40.2c0,1.3,1.1,2.3,2.4,2.3c1.3,0,2.4-1.1,2.4-2.3c0-1.3-1.1-2.3-2.4-2.3
	C765,37.8,763.9,38.9,763.9,40.2z"/>
<path class="st1" d="M763.9,56.6c0,1.3,1.1,2.3,2.4,2.3c1.3,0,2.4-1.1,2.4-2.3c0-1.3-1.1-2.3-2.4-2.3
	C765,54.2,763.9,55.3,763.9,56.6z"/>
<path class="st1" d="M763.9,73c0,1.3,1.1,2.3,2.4,2.3c1.3,0,2.4-1.1,2.4-2.3s-1.1-2.3-2.4-2.3C765,70.6,763.9,71.7,763.9,73z"/>
<path class="st1" d="M763.9,89.4c0,1.3,1.1,2.3,2.4,2.3c1.3,0,2.4-1.1,2.4-2.3c0-1.3-1.1-2.3-2.4-2.3C765,87,763.9,88.1,763.9,89.4z
	"/>
<path class="st1" d="M763.9,105.8c0,1.3,1.1,2.3,2.4,2.3c1.3,0,2.4-1.1,2.4-2.3c0-1.3-1.1-2.3-2.4-2.3
	C765,103.4,763.9,104.5,763.9,105.8z"/>
<path class="st1" d="M763.9,122.2c0,1.3,1.1,2.3,2.4,2.3c1.3,0,2.4-1.1,2.4-2.3c0-1.3-1.1-2.3-2.4-2.3
	C765,119.8,763.9,120.9,763.9,122.2z"/>
<path class="st1" d="M747.5,40.2c0,1.3,1.1,2.3,2.4,2.3c1.3,0,2.4-1.1,2.4-2.3c0-1.3-1.1-2.3-2.4-2.3
	C748.5,37.8,747.5,38.9,747.5,40.2z"/>
<path class="st1" d="M747.5,56.6c0,1.3,1.1,2.3,2.4,2.3c1.3,0,2.4-1.1,2.4-2.3c0-1.3-1.1-2.3-2.4-2.3
	C748.5,54.2,747.5,55.3,747.5,56.6z"/>
<path class="st1" d="M747.5,73c0,1.3,1.1,2.3,2.4,2.3c1.3,0,2.4-1.1,2.4-2.3s-1.1-2.3-2.4-2.3C748.5,70.6,747.5,71.7,747.5,73z"/>
<path class="st1" d="M747.5,89.4c0,1.3,1.1,2.3,2.4,2.3c1.3,0,2.4-1.1,2.4-2.3c0-1.3-1.1-2.3-2.4-2.3
	C748.5,87,747.5,88.1,747.5,89.4z"/>
<path class="st1" d="M747.5,105.8c0,1.3,1.1,2.3,2.4,2.3c1.3,0,2.4-1.1,2.4-2.3c0-1.3-1.1-2.3-2.4-2.3
	C748.5,103.4,747.5,104.5,747.5,105.8z"/>
<path class="st1" d="M747.5,122.2c0,1.3,1.1,2.3,2.4,2.3c1.3,0,2.4-1.1,2.4-2.3c0-1.3-1.1-2.3-2.4-2.3
	C748.5,119.8,747.5,120.9,747.5,122.2z"/>
<path class="st1" d="M731,40.2c0,1.3,1.1,2.3,2.4,2.3c1.3,0,2.4-1.1,2.4-2.3c0-1.3-1.1-2.3-2.4-2.3C732,37.8,731,38.9,731,40.2z"/>
<path class="st1" d="M731,56.6c0,1.3,1.1,2.3,2.4,2.3c1.3,0,2.4-1.1,2.4-2.3c0-1.3-1.1-2.3-2.4-2.3C732,54.2,731,55.3,731,56.6z"/>
<path class="st1" d="M731,73c0,1.3,1.1,2.3,2.4,2.3c1.3,0,2.4-1.1,2.4-2.3s-1.1-2.3-2.4-2.3C732,70.6,731,71.7,731,73z"/>
<path class="st1" d="M731,89.4c0,1.3,1.1,2.3,2.4,2.3c1.3,0,2.4-1.1,2.4-2.3c0-1.3-1.1-2.3-2.4-2.3C732,87,731,88.1,731,89.4z"/>
<path class="st1" d="M731,105.8c0,1.3,1.1,2.3,2.4,2.3c1.3,0,2.4-1.1,2.4-2.3c0-1.3-1.1-2.3-2.4-2.3C732,103.4,731,104.5,731,105.8z
	"/>
<path class="st1" d="M731,122.2c0,1.3,1.1,2.3,2.4,2.3c1.3,0,2.4-1.1,2.4-2.3c0-1.3-1.1-2.3-2.4-2.3C732,119.8,731,120.9,731,122.2z
	"/>
<path class="st1" d="M714.5,40.2c0,1.3,1.1,2.3,2.4,2.3c1.3,0,2.4-1.1,2.4-2.3c0-1.3-1.1-2.3-2.4-2.3
	C715.5,37.8,714.5,38.9,714.5,40.2z"/>
<path class="st1" d="M714.5,56.6c0,1.3,1.1,2.3,2.4,2.3c1.3,0,2.4-1.1,2.4-2.3c0-1.3-1.1-2.3-2.4-2.3
	C715.5,54.2,714.5,55.3,714.5,56.6z"/>
<path class="st1" d="M714.5,73c0,1.3,1.1,2.3,2.4,2.3c1.3,0,2.4-1.1,2.4-2.3s-1.1-2.3-2.4-2.3C715.5,70.6,714.5,71.7,714.5,73z"/>
<path class="st1" d="M714.5,89.4c0,1.3,1.1,2.3,2.4,2.3c1.3,0,2.4-1.1,2.4-2.3c0-1.3-1.1-2.3-2.4-2.3
	C715.5,87,714.5,88.1,714.5,89.4z"/>
<path class="st1" d="M714.5,105.8c0,1.3,1.1,2.3,2.4,2.3c1.3,0,2.4-1.1,2.4-2.3c0-1.3-1.1-2.3-2.4-2.3
	C715.5,103.4,714.5,104.5,714.5,105.8z"/>
<path class="st1" d="M714.5,122.2c0,1.3,1.1,2.3,2.4,2.3c1.3,0,2.4-1.1,2.4-2.3c0-1.3-1.1-2.3-2.4-2.3
	C715.5,119.8,714.5,120.9,714.5,122.2z"/>
<path class="st1" d="M1032.8,399c0,1.3,1.1,2.3,2.4,2.3c1.3,0,2.4-1.1,2.4-2.3c0-1.3-1.1-2.3-2.4-2.3
	C1033.8,396.6,1032.8,397.7,1032.8,399z"/>
<path class="st1" d="M1032.8,415.4c0,1.3,1.1,2.3,2.4,2.3c1.3,0,2.4-1.1,2.4-2.3c0-1.3-1.1-2.3-2.4-2.3
	C1033.8,413,1032.8,414.1,1032.8,415.4z"/>
<path class="st1" d="M1032.8,431.7c0,1.3,1.1,2.3,2.4,2.3c1.3,0,2.4-1.1,2.4-2.3c0-1.3-1.1-2.3-2.4-2.3
	C1033.8,429.4,1032.8,430.4,1032.8,431.7z"/>
<path class="st1" d="M1016.3,399c0,1.3,1.1,2.3,2.4,2.3c1.3,0,2.4-1.1,2.4-2.3c0-1.3-1.1-2.3-2.4-2.3
	C1017.4,396.6,1016.3,397.7,1016.3,399z"/>
<path class="st1" d="M1016.3,415.4c0,1.3,1.1,2.3,2.4,2.3c1.3,0,2.4-1.1,2.4-2.3c0-1.3-1.1-2.3-2.4-2.3
	C1017.4,413,1016.3,414.1,1016.3,415.4z"/>
<path class="st1" d="M1016.3,431.7c0,1.3,1.1,2.3,2.4,2.3c1.3,0,2.4-1.1,2.4-2.3c0-1.3-1.1-2.3-2.4-2.3
	C1017.4,429.4,1016.3,430.4,1016.3,431.7z"/>
<path class="st1" d="M1091,110.2c0,1.3,1.1,2.3,2.4,2.3s2.4-1.1,2.4-2.3c0-1.3-1.1-2.3-2.4-2.3S1091,108.9,1091,110.2z"/>
<path class="st1" d="M1091,126.6c0,1.3,1.1,2.3,2.4,2.3c1.3,0,2.4-1.1,2.4-2.3c0-1.3-1.1-2.3-2.4-2.3
	C1092,124.3,1091,125.3,1091,126.6z"/>
<path class="st1" d="M1091,143c0,1.3,1.1,2.3,2.4,2.3c1.3,0,2.4-1.1,2.4-2.3c0-1.3-1.1-2.3-2.4-2.3C1092,140.7,1091,141.7,1091,143z
	"/>
<path class="st1" d="M1074.5,110.2c0,1.3,1.1,2.3,2.4,2.3c1.3,0,2.4-1.1,2.4-2.3c0-1.3-1.1-2.3-2.4-2.3
	C1075.5,107.9,1074.5,108.9,1074.5,110.2z"/>
<path class="st1" d="M1074.5,126.6c0,1.3,1.1,2.3,2.4,2.3c1.3,0,2.4-1.1,2.4-2.3c0-1.3-1.1-2.3-2.4-2.3
	C1075.5,124.3,1074.5,125.3,1074.5,126.6z"/>
<path class="st1" d="M1074.5,143c0,1.3,1.1,2.3,2.4,2.3c1.3,0,2.4-1.1,2.4-2.3c0-1.3-1.1-2.3-2.4-2.3
	C1075.5,140.7,1074.5,141.7,1074.5,143z"/>
<path class="st1" d="M769.8,545.2c0,1.3,1.1,2.3,2.4,2.3c1.3,0,2.4-1.1,2.4-2.3c0-1.3-1.1-2.3-2.4-2.3
	C770.9,542.9,769.8,543.9,769.8,545.2z"/>
<path class="st1" d="M753.4,545.2c0,1.3,1.1,2.3,2.4,2.3c1.3,0,2.4-1.1,2.4-2.3c0-1.3-1.1-2.3-2.4-2.3
	C754.4,542.9,753.4,543.9,753.4,545.2z"/>
<path class="st1" d="M736.9,545.2c0,1.3,1.1,2.3,2.4,2.3c1.3,0,2.4-1.1,2.4-2.3c0-1.3-1.1-2.3-2.4-2.3
	C737.9,542.9,736.9,543.9,736.9,545.2z"/>
<path class="st1" d="M720.4,545.2c0,1.3,1.1,2.3,2.4,2.3c1.3,0,2.4-1.1,2.4-2.3c0-1.3-1.1-2.3-2.4-2.3
	C721.4,542.9,720.4,543.9,720.4,545.2z"/>
<path class="st1" d="M703.9,545.2c0,1.3,1.1,2.3,2.4,2.3c1.3,0,2.4-1.1,2.4-2.3c0-1.3-1.1-2.3-2.4-2.3
	C705,542.9,703.9,543.9,703.9,545.2z"/>
<path class="st1" d="M687.4,545.2c0,1.3,1.1,2.3,2.4,2.3c1.3,0,2.4-1.1,2.4-2.3c0-1.3-1.1-2.3-2.4-2.3
	C688.5,542.9,687.4,543.9,687.4,545.2z"/>
<path class="st1" d="M670.9,545.2c0,1.3,1.1,2.3,2.4,2.3c1.3,0,2.4-1.1,2.4-2.3c0-1.3-1.1-2.3-2.4-2.3
	C672,542.9,670.9,543.9,670.9,545.2z"/>
<path class="st1" d="M769.8,528.8c0,1.3,1.1,2.3,2.4,2.3c1.3,0,2.4-1.1,2.4-2.3c0-1.3-1.1-2.3-2.4-2.3
	C770.9,526.5,769.8,527.5,769.8,528.8z"/>
<path class="st1" d="M753.4,528.8c0,1.3,1.1,2.3,2.4,2.3c1.3,0,2.4-1.1,2.4-2.3c0-1.3-1.1-2.3-2.4-2.3
	C754.4,526.5,753.4,527.5,753.4,528.8z"/>
<path class="st1" d="M736.9,528.8c0,1.3,1.1,2.3,2.4,2.3c1.3,0,2.4-1.1,2.4-2.3c0-1.3-1.1-2.3-2.4-2.3
	C737.9,526.5,736.9,527.5,736.9,528.8z"/>
<path class="st1" d="M720.4,528.8c0,1.3,1.1,2.3,2.4,2.3c1.3,0,2.4-1.1,2.4-2.3c0-1.3-1.1-2.3-2.4-2.3
	C721.4,526.5,720.4,527.5,720.4,528.8z"/>
<path class="st1" d="M703.9,528.8c0,1.3,1.1,2.3,2.4,2.3c1.3,0,2.4-1.1,2.4-2.3c0-1.3-1.1-2.3-2.4-2.3
	C705,526.5,703.9,527.5,703.9,528.8z"/>
<path class="st1" d="M687.4,528.8c0,1.3,1.1,2.3,2.4,2.3c1.3,0,2.4-1.1,2.4-2.3c0-1.3-1.1-2.3-2.4-2.3
	C688.5,526.5,687.4,527.5,687.4,528.8z"/>
<path class="st1" d="M670.9,528.8c0,1.3,1.1,2.3,2.4,2.3c1.3,0,2.4-1.1,2.4-2.3c0-1.3-1.1-2.3-2.4-2.3
	C672,526.5,670.9,527.5,670.9,528.8z"/>
<path class="st1" d="M769.8,512.4c0,1.3,1.1,2.3,2.4,2.3c1.3,0,2.4-1.1,2.4-2.3s-1.1-2.3-2.4-2.3
	C770.9,510.1,769.8,511.2,769.8,512.4z"/>
<path class="st1" d="M753.4,512.4c0,1.3,1.1,2.3,2.4,2.3c1.3,0,2.4-1.1,2.4-2.3s-1.1-2.3-2.4-2.3
	C754.4,510.1,753.4,511.2,753.4,512.4z"/>
<path class="st1" d="M736.9,512.4c0,1.3,1.1,2.3,2.4,2.3c1.3,0,2.4-1.1,2.4-2.3s-1.1-2.3-2.4-2.3
	C737.9,510.1,736.9,511.2,736.9,512.4z"/>
<path class="st1" d="M720.4,512.4c0,1.3,1.1,2.3,2.4,2.3c1.3,0,2.4-1.1,2.4-2.3s-1.1-2.3-2.4-2.3
	C721.4,510.1,720.4,511.2,720.4,512.4z"/>
<path class="st1" d="M703.9,512.4c0,1.3,1.1,2.3,2.4,2.3c1.3,0,2.4-1.1,2.4-2.3s-1.1-2.3-2.4-2.3C705,510.1,703.9,511.2,703.9,512.4
	z"/>
<path class="st1" d="M687.4,512.4c0,1.3,1.1,2.3,2.4,2.3c1.3,0,2.4-1.1,2.4-2.3s-1.1-2.3-2.4-2.3
	C688.5,510.1,687.4,511.2,687.4,512.4z"/>
<path class="st1" d="M670.9,512.4c0,1.3,1.1,2.3,2.4,2.3c1.3,0,2.4-1.1,2.4-2.3s-1.1-2.3-2.4-2.3C672,510.1,670.9,511.2,670.9,512.4
	z"/>
<path class="st1" d="M769.8,496.1c0,1.3,1.1,2.3,2.4,2.3c1.3,0,2.4-1.1,2.4-2.3c0-1.3-1.1-2.3-2.4-2.3
	C770.9,493.7,769.8,494.8,769.8,496.1z"/>
<path class="st1" d="M753.4,496.1c0,1.3,1.1,2.3,2.4,2.3c1.3,0,2.4-1.1,2.4-2.3c0-1.3-1.1-2.3-2.4-2.3
	C754.4,493.7,753.4,494.8,753.4,496.1z"/>
<path class="st1" d="M736.9,496.1c0,1.3,1.1,2.3,2.4,2.3c1.3,0,2.4-1.1,2.4-2.3c0-1.3-1.1-2.3-2.4-2.3
	C737.9,493.7,736.9,494.8,736.9,496.1z"/>
<path class="st1" d="M720.4,496.1c0,1.3,1.1,2.3,2.4,2.3c1.3,0,2.4-1.1,2.4-2.3c0-1.3-1.1-2.3-2.4-2.3
	C721.4,493.7,720.4,494.8,720.4,496.1z"/>
<path class="st1" d="M703.9,496.1c0,1.3,1.1,2.3,2.4,2.3c1.3,0,2.4-1.1,2.4-2.3c0-1.3-1.1-2.3-2.4-2.3
	C705,493.7,703.9,494.8,703.9,496.1z"/>
<path class="st1" d="M687.4,496.1c0,1.3,1.1,2.3,2.4,2.3c1.3,0,2.4-1.1,2.4-2.3c0-1.3-1.1-2.3-2.4-2.3
	C688.5,493.7,687.4,494.8,687.4,496.1z"/>
<path class="st1" d="M670.9,496.1c0,1.3,1.1,2.3,2.4,2.3c1.3,0,2.4-1.1,2.4-2.3c0-1.3-1.1-2.3-2.4-2.3
	C672,493.7,670.9,494.8,670.9,496.1z"/>
<polyline class="st2" points="915.4,247 921.4,241 915.4,235 "/>
<line class="st2" x1="923.4" y1="249" x2="931.4" y2="249"/>
<circle class="st2" cx="971.8" cy="388.1" r="3"/>
<circle class="st2" cx="959.8" cy="376.1" r="3"/>
<path class="st2" d="M966.8,376.1h3c1.1,0,2,0.9,2,2v7"/>
<line class="st2" x1="959.8" y1="379.1" x2="959.8" y2="391.1"/>
<circle class="st3" cx="865.3" cy="143.8" r="3"/>
<circle class="st3" cx="853.3" cy="131.8" r="3"/>
<path class="st3" d="M853.3,146.8v-12c0,5,4,9,9,9"/>
</svg>
