<?xml version="1.0" encoding="utf-8"?>
<!-- Generator: Adobe Illustrator 24.0.1, SVG Export Plug-In . SVG Version: 6.00 Build 0)  -->
<svg version="1.1" id="Camada_1" xmlns="http://www.w3.org/2000/svg" xmlns:xlink="http://www.w3.org/1999/xlink" x="0px" y="0px"
	 viewBox="0 0 1120 565" style="enable-background:new 0 0 1120 565;" xml:space="preserve">
<style type="text/css">
	.st0{opacity:0.51;fill:none;stroke:#04D361;stroke-width:3;stroke-linecap:round;stroke-linejoin:round;stroke-miterlimit:10;}
	.st1{opacity:0.51;fill:#9871F5;}
	.st2{opacity:0.51;fill:none;stroke:#9871F5;stroke-width:2;stroke-linecap:round;stroke-linejoin:round;}
	.st3{opacity:0.51;fill:none;stroke:#04D361;stroke-width:2;stroke-linecap:round;stroke-linejoin:round;}
	.st4{opacity:0.51;fill:none;stroke:#04D361;stroke-width:2;stroke-linecap:round;stroke-linejoin:round;stroke-miterlimit:10;}
</style>
<path class="st0" d="M1035,544c-4,0-7.2-3.2-7.2-7.2c0-4,3.2-7.2,7.2-7.2c4,0,7.2,3.2,7.2,7.2C1042.2,540.8,1039,544,1035,544z"/>
<path class="st0" d="M1030,542l-5.1,5.1"/>
<path class="st0" d="M899.7,23.4l-7.6,7.5"/>
<path class="st0" d="M899.7,31l-7.6-7.5"/>
<path class="st0" d="M888.9,477.2l-7.6,7.5"/>
<path class="st0" d="M888.9,484.7l-7.6-7.5"/>
<path class="st0" d="M1095.9,294.3c-3.6,0-6.5-2.9-6.5-6.5c0-3.6,2.9-6.5,6.5-6.5c3.6,0,6.5,2.9,6.5,6.5
	C1102.4,291.4,1099.5,294.3,1095.9,294.3z"/>
<path class="st1" d="M763.9,40.2c0,1.3,1.1,2.3,2.4,2.3c1.3,0,2.4-1.1,2.4-2.3c0-1.3-1.1-2.3-2.4-2.3
	C765,37.8,763.9,38.9,763.9,40.2z"/>
<path class="st1" d="M763.9,56.6c0,1.3,1.1,2.3,2.4,2.3c1.3,0,2.4-1.1,2.4-2.3c0-1.3-1.1-2.3-2.4-2.3
	C765,54.2,763.9,55.3,763.9,56.6z"/>
<path class="st1" d="M763.9,73c0,1.3,1.1,2.3,2.4,2.3c1.3,0,2.4-1.1,2.4-2.3s-1.1-2.3-2.4-2.3C765,70.6,763.9,71.7,763.9,73z"/>
<path class="st1" d="M763.9,89.4c0,1.3,1.1,2.3,2.4,2.3c1.3,0,2.4-1.1,2.4-2.3c0-1.3-1.1-2.3-2.4-2.3C765,87,763.9,88.1,763.9,89.4z
	"/>
<path class="st1" d="M763.9,105.8c0,1.3,1.1,2.3,2.4,2.3c1.3,0,2.4-1.1,2.4-2.3c0-1.3-1.1-2.3-2.4-2.3
	C765,103.4,763.9,104.5,763.9,105.8z"/>
<path class="st1" d="M763.9,122.2c0,1.3,1.1,2.3,2.4,2.3c1.3,0,2.4-1.1,2.4-2.3c0-1.3-1.1-2.3-2.4-2.3
	C765,119.8,763.9,120.9,763.9,122.2z"/>
<path class="st1" d="M747.5,40.2c0,1.3,1.1,2.3,2.4,2.3c1.3,0,2.4-1.1,2.4-2.3c0-1.3-1.1-2.3-2.4-2.3
	C748.5,37.8,747.5,38.9,747.5,40.2z"/>
<path class="st1" d="M747.5,56.6c0,1.3,1.1,2.3,2.4,2.3c1.3,0,2.4-1.1,2.4-2.3c0-1.3-1.1-2.3-2.4-2.3
	C748.5,54.2,747.5,55.3,747.5,56.6z"/>
<path class="st1" d="M747.5,73c0,1.3,1.1,2.3,2.4,2.3c1.3,0,2.4-1.1,2.4-2.3s-1.1-2.3-2.4-2.3C748.5,70.6,747.5,71.7,747.5,73z"/>
<path class="st1" d="M747.5,89.4c0,1.3,1.1,2.3,2.4,2.3c1.3,0,2.4-1.1,2.4-2.3c0-1.3-1.1-2.3-2.4-2.3
	C748.5,87,747.5,88.1,747.5,89.4z"/>
<path class="st1" d="M747.5,105.8c0,1.3,1.1,2.3,2.4,2.3c1.3,0,2.4-1.1,2.4-2.3c0-1.3-1.1-2.3-2.4-2.3
	C748.5,103.4,747.5,104.5,747.5,105.8z"/>
<path class="st1" d="M747.5,122.2c0,1.3,1.1,2.3,2.4,2.3c1.3,0,2.4-1.1,2.4-2.3c0-1.3-1.1-2.3-2.4-2.3
	C748.5,119.8,747.5,120.9,747.5,122.2z"/>
<path class="st1" d="M731,40.2c0,1.3,1.1,2.3,2.4,2.3c1.3,0,2.4-1.1,2.4-2.3c0-1.3-1.1-2.3-2.4-2.3C732,37.8,731,38.9,731,40.2z"/>
<path class="st1" d="M731,56.6c0,1.3,1.1,2.3,2.4,2.3c1.3,0,2.4-1.1,2.4-2.3c0-1.3-1.1-2.3-2.4-2.3C732,54.2,731,55.3,731,56.6z"/>
<path class="st1" d="M731,73c0,1.3,1.1,2.3,2.4,2.3c1.3,0,2.4-1.1,2.4-2.3s-1.1-2.3-2.4-2.3C732,70.6,731,71.7,731,73z"/>
<path class="st1" d="M731,89.4c0,1.3,1.1,2.3,2.4,2.3c1.3,0,2.4-1.1,2.4-2.3c0-1.3-1.1-2.3-2.4-2.3C732,87,731,88.1,731,89.4z"/>
<path class="st1" d="M731,105.8c0,1.3,1.1,2.3,2.4,2.3c1.3,0,2.4-1.1,2.4-2.3c0-1.3-1.1-2.3-2.4-2.3C732,103.4,731,104.5,731,105.8z
	"/>
<path class="st1" d="M731,122.2c0,1.3,1.1,2.3,2.4,2.3c1.3,0,2.4-1.1,2.4-2.3c0-1.3-1.1-2.3-2.4-2.3C732,119.8,731,120.9,731,122.2z
	"/>
<path class="st1" d="M714.5,40.2c0,1.3,1.1,2.3,2.4,2.3c1.3,0,2.4-1.1,2.4-2.3c0-1.3-1.1-2.3-2.4-2.3
	C715.5,37.8,714.5,38.9,714.5,40.2z"/>
<path class="st1" d="M714.5,56.6c0,1.3,1.1,2.3,2.4,2.3c1.3,0,2.4-1.1,2.4-2.3c0-1.3-1.1-2.3-2.4-2.3
	C715.5,54.2,714.5,55.3,714.5,56.6z"/>
<path class="st1" d="M714.5,73c0,1.3,1.1,2.3,2.4,2.3c1.3,0,2.4-1.1,2.4-2.3s-1.1-2.3-2.4-2.3C715.5,70.6,714.5,71.7,714.5,73z"/>
<path class="st1" d="M714.5,89.4c0,1.3,1.1,2.3,2.4,2.3c1.3,0,2.4-1.1,2.4-2.3c0-1.3-1.1-2.3-2.4-2.3
	C715.5,87,714.5,88.1,714.5,89.4z"/>
<path class="st1" d="M714.5,105.8c0,1.3,1.1,2.3,2.4,2.3c1.3,0,2.4-1.1,2.4-2.3c0-1.3-1.1-2.3-2.4-2.3
	C715.5,103.4,714.5,104.5,714.5,105.8z"/>
<path class="st1" d="M714.5,122.2c0,1.3,1.1,2.3,2.4,2.3c1.3,0,2.4-1.1,2.4-2.3c0-1.3-1.1-2.3-2.4-2.3
	C715.5,119.8,714.5,120.9,714.5,122.2z"/>
<path class="st1" d="M1032.8,399c0,1.3,1.1,2.3,2.4,2.3c1.3,0,2.4-1.1,2.4-2.3c0-1.3-1.1-2.3-2.4-2.3
	C1033.8,396.6,1032.8,397.7,1032.8,399z"/>
<path class="st1" d="M1032.8,415.4c0,1.3,1.1,2.3,2.4,2.3c1.3,0,2.4-1.1,2.4-2.3c0-1.3-1.1-2.3-2.4-2.3
	C1033.8,413,1032.8,414.1,1032.8,415.4z"/>
<path class="st1" d="M1032.8,431.7c0,1.3,1.1,2.3,2.4,2.3c1.3,0,2.4-1.1,2.4-2.3c0-1.3-1.1-2.3-2.4-2.3
	C1033.8,429.4,1032.8,430.4,1032.8,431.7z"/>
<path class="st1" d="M1016.3,399c0,1.3,1.1,2.3,2.4,2.3c1.3,0,2.4-1.1,2.4-2.3c0-1.3-1.1-2.3-2.4-2.3
	C1017.4,396.6,1016.3,397.7,1016.3,399z"/>
<path class="st1" d="M1016.3,415.4c0,1.3,1.1,2.3,2.4,2.3c1.3,0,2.4-1.1,2.4-2.3c0-1.3-1.1-2.3-2.4-2.3
	C1017.4,413,1016.3,414.1,1016.3,415.4z"/>
<path class="st1" d="M1016.3,431.7c0,1.3,1.1,2.3,2.4,2.3c1.3,0,2.4-1.1,2.4-2.3c0-1.3-1.1-2.3-2.4-2.3
	C1017.4,429.4,1016.3,430.4,1016.3,431.7z"/>
<g>
	<path class="st0" d="M965.8,131.1c-3.6,0-6.5-2.9-6.5-6.5c0-3.6,2.9-6.5,6.5-6.5c3.6,0,6.5,2.9,6.5,6.5
		C972.3,128.2,969.3,131.1,965.8,131.1z"/>
	<path class="st1" d="M1091,110.2c0,1.3,1.1,2.3,2.4,2.3s2.4-1.1,2.4-2.3c0-1.3-1.1-2.3-2.4-2.3S1091,108.9,1091,110.2z"/>
	<path class="st1" d="M1091,126.6c0,1.3,1.1,2.3,2.4,2.3c1.3,0,2.4-1.1,2.4-2.3c0-1.3-1.1-2.3-2.4-2.3
		C1092,124.3,1091,125.3,1091,126.6z"/>
	<path class="st1" d="M1091,143c0,1.3,1.1,2.3,2.4,2.3c1.3,0,2.4-1.1,2.4-2.3c0-1.3-1.1-2.3-2.4-2.3C1092,140.7,1091,141.7,1091,143
		z"/>
	<path class="st1" d="M1074.5,110.2c0,1.3,1.1,2.3,2.4,2.3c1.3,0,2.4-1.1,2.4-2.3c0-1.3-1.1-2.3-2.4-2.3
		C1075.5,107.9,1074.5,108.9,1074.5,110.2z"/>
	<path class="st1" d="M1074.5,126.6c0,1.3,1.1,2.3,2.4,2.3c1.3,0,2.4-1.1,2.4-2.3c0-1.3-1.1-2.3-2.4-2.3
		C1075.5,124.3,1074.5,125.3,1074.5,126.6z"/>
	<path class="st1" d="M1074.5,143c0,1.3,1.1,2.3,2.4,2.3c1.3,0,2.4-1.1,2.4-2.3c0-1.3-1.1-2.3-2.4-2.3
		C1075.5,140.7,1074.5,141.7,1074.5,143z"/>
</g>
<path class="st1" d="M746.8,545.2c0,1.3,1.1,2.3,2.4,2.3c1.3,0,2.4-1.1,2.4-2.3c0-1.3-1.1-2.3-2.4-2.3
	C747.9,542.9,746.8,543.9,746.8,545.2z"/>
<path class="st1" d="M730.4,545.2c0,1.3,1.1,2.3,2.4,2.3c1.3,0,2.4-1.1,2.4-2.3c0-1.3-1.1-2.3-2.4-2.3
	C731.4,542.9,730.4,543.9,730.4,545.2z"/>
<path class="st1" d="M713.9,545.2c0,1.3,1.1,2.3,2.4,2.3c1.3,0,2.4-1.1,2.4-2.3c0-1.3-1.1-2.3-2.4-2.3
	C714.9,542.9,713.9,543.9,713.9,545.2z"/>
<path class="st1" d="M697.4,545.2c0,1.3,1.1,2.3,2.4,2.3c1.3,0,2.4-1.1,2.4-2.3c0-1.3-1.1-2.3-2.4-2.3
	C698.4,542.9,697.4,543.9,697.4,545.2z"/>
<path class="st1" d="M680.9,545.2c0,1.3,1.1,2.3,2.4,2.3c1.3,0,2.4-1.1,2.4-2.3c0-1.3-1.1-2.3-2.4-2.3
	C682,542.9,680.9,543.9,680.9,545.2z"/>
<path class="st1" d="M664.4,545.2c0,1.3,1.1,2.3,2.4,2.3c1.3,0,2.4-1.1,2.4-2.3c0-1.3-1.1-2.3-2.4-2.3
	C665.5,542.9,664.4,543.9,664.4,545.2z"/>
<path class="st1" d="M647.9,545.2c0,1.3,1.1,2.3,2.4,2.3c1.3,0,2.4-1.1,2.4-2.3c0-1.3-1.1-2.3-2.4-2.3
	C649,542.9,647.9,543.9,647.9,545.2z"/>
<path class="st1" d="M746.8,528.8c0,1.3,1.1,2.3,2.4,2.3c1.3,0,2.4-1.1,2.4-2.3c0-1.3-1.1-2.3-2.4-2.3
	C747.9,526.5,746.8,527.5,746.8,528.8z"/>
<path class="st1" d="M730.4,528.8c0,1.3,1.1,2.3,2.4,2.3c1.3,0,2.4-1.1,2.4-2.3c0-1.3-1.1-2.3-2.4-2.3
	C731.4,526.5,730.4,527.5,730.4,528.8z"/>
<path class="st1" d="M713.9,528.8c0,1.3,1.1,2.3,2.4,2.3c1.3,0,2.4-1.1,2.4-2.3c0-1.3-1.1-2.3-2.4-2.3
	C714.9,526.5,713.9,527.5,713.9,528.8z"/>
<path class="st1" d="M697.4,528.8c0,1.3,1.1,2.3,2.4,2.3c1.3,0,2.4-1.1,2.4-2.3c0-1.3-1.1-2.3-2.4-2.3
	C698.4,526.5,697.4,527.5,697.4,528.8z"/>
<path class="st1" d="M680.9,528.8c0,1.3,1.1,2.3,2.4,2.3c1.3,0,2.4-1.1,2.4-2.3c0-1.3-1.1-2.3-2.4-2.3
	C682,526.5,680.9,527.5,680.9,528.8z"/>
<path class="st1" d="M664.4,528.8c0,1.3,1.1,2.3,2.4,2.3c1.3,0,2.4-1.1,2.4-2.3c0-1.3-1.1-2.3-2.4-2.3
	C665.5,526.5,664.4,527.5,664.4,528.8z"/>
<path class="st1" d="M647.9,528.8c0,1.3,1.1,2.3,2.4,2.3c1.3,0,2.4-1.1,2.4-2.3c0-1.3-1.1-2.3-2.4-2.3
	C649,526.5,647.9,527.5,647.9,528.8z"/>
<path class="st1" d="M746.8,512.4c0,1.3,1.1,2.3,2.4,2.3c1.3,0,2.4-1.1,2.4-2.3s-1.1-2.3-2.4-2.3
	C747.9,510.1,746.8,511.2,746.8,512.4z"/>
<path class="st1" d="M730.4,512.4c0,1.3,1.1,2.3,2.4,2.3c1.3,0,2.4-1.1,2.4-2.3s-1.1-2.3-2.4-2.3
	C731.4,510.1,730.4,511.2,730.4,512.4z"/>
<path class="st1" d="M713.9,512.4c0,1.3,1.1,2.3,2.4,2.3c1.3,0,2.4-1.1,2.4-2.3s-1.1-2.3-2.4-2.3
	C714.9,510.1,713.9,511.2,713.9,512.4z"/>
<path class="st1" d="M697.4,512.4c0,1.3,1.1,2.3,2.4,2.3c1.3,0,2.4-1.1,2.4-2.3s-1.1-2.3-2.4-2.3
	C698.4,510.1,697.4,511.2,697.4,512.4z"/>
<path class="st1" d="M680.9,512.4c0,1.3,1.1,2.3,2.4,2.3c1.3,0,2.4-1.1,2.4-2.3s-1.1-2.3-2.4-2.3C682,510.1,680.9,511.2,680.9,512.4
	z"/>
<path class="st1" d="M664.4,512.4c0,1.3,1.1,2.3,2.4,2.3c1.3,0,2.4-1.1,2.4-2.3s-1.1-2.3-2.4-2.3
	C665.5,510.1,664.4,511.2,664.4,512.4z"/>
<path class="st1" d="M647.9,512.4c0,1.3,1.1,2.3,2.4,2.3c1.3,0,2.4-1.1,2.4-2.3s-1.1-2.3-2.4-2.3C649,510.1,647.9,511.2,647.9,512.4
	z"/>
<path class="st1" d="M746.8,496.1c0,1.3,1.1,2.3,2.4,2.3c1.3,0,2.4-1.1,2.4-2.3c0-1.3-1.1-2.3-2.4-2.3
	C747.9,493.7,746.8,494.8,746.8,496.1z"/>
<path class="st1" d="M730.4,496.1c0,1.3,1.1,2.3,2.4,2.3c1.3,0,2.4-1.1,2.4-2.3c0-1.3-1.1-2.3-2.4-2.3
	C731.4,493.7,730.4,494.8,730.4,496.1z"/>
<path class="st1" d="M713.9,496.1c0,1.3,1.1,2.3,2.4,2.3c1.3,0,2.4-1.1,2.4-2.3c0-1.3-1.1-2.3-2.4-2.3
	C714.9,493.7,713.9,494.8,713.9,496.1z"/>
<path class="st1" d="M697.4,496.1c0,1.3,1.1,2.3,2.4,2.3c1.3,0,2.4-1.1,2.4-2.3c0-1.3-1.1-2.3-2.4-2.3
	C698.4,493.7,697.4,494.8,697.4,496.1z"/>
<path class="st1" d="M680.9,496.1c0,1.3,1.1,2.3,2.4,2.3c1.3,0,2.4-1.1,2.4-2.3c0-1.3-1.1-2.3-2.4-2.3
	C682,493.7,680.9,494.8,680.9,496.1z"/>
<path class="st1" d="M664.4,496.1c0,1.3,1.1,2.3,2.4,2.3c1.3,0,2.4-1.1,2.4-2.3c0-1.3-1.1-2.3-2.4-2.3
	C665.5,493.7,664.4,494.8,664.4,496.1z"/>
<path class="st1" d="M647.9,496.1c0,1.3,1.1,2.3,2.4,2.3c1.3,0,2.4-1.1,2.4-2.3c0-1.3-1.1-2.3-2.4-2.3
	C649,493.7,647.9,494.8,647.9,496.1z"/>
<polyline class="st2" points="871,287.5 877,281.5 871,275.5 "/>
<circle class="st2" cx="971.8" cy="388.1" r="3"/>
<circle class="st2" cx="959.8" cy="376.1" r="3"/>
<path class="st2" d="M966.8,376.1h3c1.1,0,2,0.9,2,2v7"/>
<line class="st2" x1="959.8" y1="379.1" x2="959.8" y2="391.1"/>
<circle class="st3" cx="865.3" cy="143.8" r="3"/>
<circle class="st3" cx="853.3" cy="131.8" r="3"/>
<path class="st3" d="M853.3,146.8v-12c0,5,4,9,9,9"/>
<path class="st3" d="M896.3,232.3h16c1.1,0,2,0.9,2,2v10c0,1.1-0.9,2-2,2h-16c-1.1,0-2-0.9-2-2v-10
	C894.3,233.2,895.2,232.3,896.3,232.3z"/>
<path class="st4" d="M908.3,246.3v-16c0-1.1-0.9-2-2-2h-4c-1.1,0-2,0.9-2,2v16"/>
<path class="st2" d="M829.2,245h12c1.1,0,2,0.9,2,2v12c0,1.1-0.9,2-2,2h-12c-1.1,0-2-0.9-2-2v-12C827.2,245.9,828.1,245,829.2,245z"
	/>
<rect x="832.2" y="250" class="st2" width="6" height="6"/>
<line class="st2" x1="832.2" y1="242" x2="832.2" y2="245"/>
<line class="st2" x1="838.2" y1="242" x2="838.2" y2="245"/>
<line class="st2" x1="832.2" y1="261" x2="832.2" y2="264"/>
<line class="st2" x1="838.2" y1="261" x2="838.2" y2="264"/>
<line class="st2" x1="843.2" y1="250" x2="846.2" y2="250"/>
<line class="st2" x1="843.2" y1="255" x2="846.2" y2="255"/>
<path class="st3" d="M715.8,232.9c-2.1-2.1-5.6-2.1-7.8,0c0,0,0,0,0,0l-1.1,1.1l-1.1-1.1c-2.1-2.1-5.6-2.1-7.8,0
	c-2.1,2.1-2.1,5.6,0,7.8l1.1,1.1l7.8,7.8l7.8-7.8l1.1-1.1C717.9,238.6,717.9,235.1,715.8,232.9C715.8,232.9,715.8,232.9,715.8,232.9
	z"/>
<polyline class="st2" points="1046.8,293.6 1052.8,287.6 1046.8,281.6 "/>
<line class="st2" x1="1054.8" y1="295.6" x2="1062.8" y2="295.6"/>
<path class="st3" d="M1077.8,226.1h16c1.1,0,2,0.9,2,2v10c0,1.1-0.9,2-2,2h-16c-1.1,0-2-0.9-2-2v-10
	C1075.8,227,1076.7,226.1,1077.8,226.1z"/>
<path class="st4" d="M1089.8,240.1v-16c0-1.1-0.9-2-2-2h-4c-1.1,0-2,0.9-2,2v16"/>
<path class="st2" d="M950.8,279.5h12c1.1,0,2,0.9,2,2v12c0,1.1-0.9,2-2,2h-12c-1.1,0-2-0.9-2-2v-12
	C948.8,280.4,949.6,279.5,950.8,279.5z"/>
<rect x="953.8" y="284.5" class="st2" width="6" height="6"/>
<line class="st2" x1="953.8" y1="276.5" x2="953.8" y2="279.5"/>
<line class="st2" x1="959.8" y1="276.5" x2="959.8" y2="279.5"/>
<line class="st2" x1="953.8" y1="295.5" x2="953.8" y2="298.5"/>
<line class="st2" x1="959.8" y1="295.5" x2="959.8" y2="298.5"/>
<line class="st2" x1="964.8" y1="284.5" x2="967.8" y2="284.5"/>
<line class="st2" x1="964.8" y1="289.5" x2="967.8" y2="289.5"/>
<line class="st2" x1="945.8" y1="284.5" x2="948.8" y2="284.5"/>
<line class="st2" x1="945.8" y1="289.5" x2="948.8" y2="289.5"/>
<path class="st3" d="M996.6,223.6c-2.1-2.1-5.6-2.1-7.8,0c0,0,0,0,0,0l-1.1,1.1l-1.1-1.1c-2.1-2.1-5.6-2.1-7.8,0
	c-2.1,2.1-2.1,5.6,0,7.8l1.1,1.1l7.8,7.8l7.8-7.8l1.1-1.1C998.7,229.3,998.7,225.8,996.6,223.6C996.6,223.6,996.6,223.6,996.6,223.6
	z"/>
<polyline class="st2" points="1089.5,57.5 1095.5,51.5 1089.5,45.5 "/>
<line class="st2" x1="1097.5" y1="59.5" x2="1105.5" y2="59.5"/>
<path class="st3" d="M1077.8,1.4h16c1.1,0,2,0.9,2,2v10c0,1.1-0.9,2-2,2h-16c-1.1,0-2-0.9-2-2v-10C1075.8,2.3,1076.7,1.4,1077.8,1.4
	z"/>
<path class="st4" d="M1089.8,15.4v-16c0-1.1-0.9-2-2-2h-4c-1.1,0-2,0.9-2,2v16"/>
<path class="st2" d="M1047.7,15h12c1.1,0,2,0.9,2,2v12c0,1.1-0.9,2-2,2h-12c-1.1,0-2-0.9-2-2V17C1045.7,15.9,1046.6,15,1047.7,15z"
	/>
<rect x="1050.7" y="20" class="st2" width="6" height="6"/>
<line class="st2" x1="1050.7" y1="12" x2="1050.7" y2="15"/>
<line class="st2" x1="1056.7" y1="12" x2="1056.7" y2="15"/>
<line class="st2" x1="1050.7" y1="31" x2="1050.7" y2="34"/>
<line class="st2" x1="1056.7" y1="31" x2="1056.7" y2="34"/>
<line class="st2" x1="1061.7" y1="20" x2="1064.7" y2="20"/>
<line class="st2" x1="1061.7" y1="25" x2="1064.7" y2="25"/>
<line class="st2" x1="1042.7" y1="20" x2="1045.7" y2="20"/>
<line class="st2" x1="1042.7" y1="25" x2="1045.7" y2="25"/>
<path class="st3" d="M1039.3-12.5c-2.1-2.1-5.6-2.1-7.8,0c0,0,0,0,0,0l-1.1,1.1l-1.1-1.1c-2.1-2.1-5.6-2.1-7.8,0s-2.1,5.6,0,7.8
	l1.1,1.1l7.8,7.8l7.8-7.8l1.1-1.1C1041.5-6.8,1041.5-10.3,1039.3-12.5C1039.3-12.5,1039.3-12.5,1039.3-12.5z"/>
<g>
	<path class="st0" d="M771.6,395.1c-3.6,0-6.5-2.9-6.5-6.5c0-3.6,2.9-6.5,6.5-6.5c3.6,0,6.5,2.9,6.5,6.5
		C778.1,392.2,775.2,395.1,771.6,395.1z"/>
	<path class="st1" d="M896.8,374.2c0,1.3,1.1,2.3,2.4,2.3c1.3,0,2.4-1.1,2.4-2.3c0-1.3-1.1-2.3-2.4-2.3
		C897.9,371.9,896.8,372.9,896.8,374.2z"/>
	<path class="st1" d="M896.8,390.6c0,1.3,1.1,2.3,2.4,2.3c1.3,0,2.4-1.1,2.4-2.3s-1.1-2.3-2.4-2.3
		C897.9,388.3,896.8,389.3,896.8,390.6z"/>
	<path class="st1" d="M896.8,407c0,1.3,1.1,2.3,2.4,2.3c1.3,0,2.4-1.1,2.4-2.3c0-1.3-1.1-2.3-2.4-2.3
		C897.9,404.7,896.8,405.7,896.8,407z"/>
	<path class="st1" d="M880.3,374.2c0,1.3,1.1,2.3,2.4,2.3c1.3,0,2.4-1.1,2.4-2.3c0-1.3-1.1-2.3-2.4-2.3
		C881.4,371.9,880.3,372.9,880.3,374.2z"/>
	<path class="st1" d="M880.3,390.6c0,1.3,1.1,2.3,2.4,2.3c1.3,0,2.4-1.1,2.4-2.3c0-1.3-1.1-2.3-2.4-2.3
		C881.4,388.3,880.3,389.3,880.3,390.6z"/>
	<path class="st1" d="M880.3,407c0,1.3,1.1,2.3,2.4,2.3c1.3,0,2.4-1.1,2.4-2.3c0-1.3-1.1-2.3-2.4-2.3
		C881.4,404.7,880.3,405.7,880.3,407z"/>
</g>
<path class="st3" d="M944.8,176.4h16c1.1,0,2,0.9,2,2v10c0,1.1-0.9,2-2,2h-16c-1.1,0-2-0.9-2-2v-10
	C942.8,177.3,943.6,176.4,944.8,176.4z"/>
<path class="st4" d="M956.8,190.4v-16c0-1.1-0.9-2-2-2h-4c-1.1,0-2,0.9-2,2v16"/>
</svg>
