<?xml version="1.0" encoding="utf-8"?>
<!-- Generator: Adobe Illustrator 24.0.1, SVG Export Plug-In . SVG Version: 6.00 Build 0)  -->
<svg version="1.1" id="Camada_1" xmlns="http://www.w3.org/2000/svg" xmlns:xlink="http://www.w3.org/1999/xlink" x="0px" y="0px"
	 viewBox="0 0 100 100" style="enable-background:new 0 0 100 100;" xml:space="preserve">
<style type="text/css">
	.st0{fill:#9EDCF2;}
	.st1{clip-path:url(#SVGID_2_);}
	.st2{clip-path:url(#SVGID_4_);}
	.st3{fill:#7DBCE7;}
	.st4{fill:#010101;}
	.st5{fill:#F5CCB3;}
	.st6{fill:#FFFFFF;}
	.st7{fill:#AF5C51;}
	.st8{fill:#C4E5D9;}
</style>
<g id="surface1">
	<path class="st0" d="M78.2,76.6c0,5.3-12.5,9.6-28,9.6s-28-4.3-28-9.6c0-5.3,12.5-9.6,28-9.6S78.2,71.3,78.2,76.6z"/>
	<g>
		<g>
			<defs>
				<rect id="SVGID_1_" x="34" y="73" width="32" height="14"/>
			</defs>
			<clipPath id="SVGID_2_">
				<use xlink:href="#SVGID_1_"  style="overflow:visible;"/>
			</clipPath>
			<g class="st1">
				<g>
					<g>
						<defs>
							<path id="SVGID_3_" d="M38.2,93.9c0.6,2.9,2.1,4.6,3.7,5.6h16c1.9-1.3,3.9-3.8,3.9-8.4V79.2c0,0,0.2-3,3-3.9
								c0,0,1.6-1.1-0.1-1.7c0,0-7.6-0.6-7.6,5.5v9.1c0,0,0.3,3.3-1.5,4.7V81.6c0,0,0.1-3.6,2-4.9c0,0,1.2-2.2-1.5-1.6
								c0,0-5.2,0.7-5.5,6.8l-0.1,11.5h-1.2l-0.1-11.5c-0.2-6-5.4-6.8-5.4-6.8c-2.7-0.6-1.5,1.6-1.5,1.6c1.9,1.3,2,4.9,2,4.9V93
								c-1.8-1.3-1.5-4.8-1.5-4.8v-9.1c0-6.1-7.6-5.5-7.6-5.5c-1.8,0.6-0.1,1.7-0.1,1.7c2.7,1,3,3.9,3,3.9v8.3L38.2,93.9z"/>
						</defs>
						<clipPath id="SVGID_4_">
							<use xlink:href="#SVGID_3_"  style="overflow:visible;"/>
						</clipPath>
						<g class="st2">
							<path class="st3" d="M78.2,76.6c0,5.3-12.5,9.6-28,9.6s-28-4.3-28-9.6c0-5.3,12.5-9.6,28-9.6S78.2,71.3,78.2,76.6z"/>
						</g>
					</g>
				</g>
			</g>
		</g>
	</g>
	<path class="st0" d="M18.3,48.3l-0.8,2.8c0,0-0.2,1,0.7,1.2c1,0,0.9-1,0.9-1.2L18.3,48.3z"/>
	<path class="st4" d="M99.6,36.7l0.1-0.3C91.5,34.8,83.1,34.8,78,35c0.8-3,1.1-6.4,1.1-10.2c0-5.5-2.1-9.9-5.5-13.2
		c0.6-1.9,1.4-6.1-0.8-11.4c0,0-3.8-1.2-12.5,4.5c-3.4-0.8-7-1.3-10.6-1.3c-4,0-8,0.5-11.8,1.5c-9-6-12.9-4.8-12.9-4.8
		c-2.6,6.3-1,11-0.5,12.2c-3,3.2-4.9,7.3-4.9,12.3c0,3.8,0.4,7.2,1.5,10.2C16,34.6,7.9,34.7-0.1,36.3L0,36.6
		C7.9,35,16.1,35,21.2,35.2c0.2,0.6,0.5,1.2,0.8,1.8c-5.1,0.2-13.7,0.8-21.9,3.1l0.1,0.3c8.3-2.3,17-2.9,22-3.1
		c3,5.5,9,9.1,19.5,10.2c-1.5,1-3,2.7-3.7,5.6c-2.1,1-8.5,3.3-12.4-3.3c0,0-2.2-3.9-6.3-4.2c0,0-4.1-0.1-0.3,2.5c0,0,2.7,1.3,4.6,6
		c0,0,2.5,8,14.2,5.4v8.2c0,0-0.2,2.9-3,3.9c0,0-1.6,1.1,0.1,1.7c0,0,7.6,0.6,7.6-5.5v-9c0,0-0.3-3.6,1.5-4.8v15c0,0-0.1,3.6-2,4.9
		c0,0-1.2,2.2,1.5,1.6c0,0,5.2-0.7,5.5-6.8l0.1-15.1h1.2l0.1,15.1c0.2,6,5.4,6.8,5.4,6.8c2.7,0.6,1.5-1.6,1.5-1.6
		c-1.9-1.3-2-4.9-2-4.9V54.2c1.8,1.4,1.5,4.7,1.5,4.7v9c0,6.1,7.6,5.5,7.6,5.5c1.8-0.6,0.1-1.7,0.1-1.7c-2.7-1-3-3.9-3-3.9V56
		c0-4.6-2-7.1-3.9-8.4c11.3-1.1,16.7-4.7,19.2-10.3c4.9,0.1,13.9,0.7,22.4,3.1l0.1-0.3C90.9,37.8,82,37.1,77,37
		c0.2-0.6,0.4-1.1,0.6-1.8C82.9,35.1,91.4,35.1,99.6,36.7z"/>
	<path class="st5" d="M68,24.4c2.4,2.2,3.9,4.8,3.9,7.6c0,13.2-10,13.5-22.3,13.5S27.3,43.7,27.3,32c0-2.8,1.4-5.4,3.8-7.6
		c4-3.6,10.8-1.7,18.5-1.7C57.2,22.8,64,20.8,68,24.4z"/>
	<path class="st6" d="M42.2,32.7c0,3.6-2.1,6.6-4.6,6.6s-4.6-3-4.6-6.6s2.1-6.6,4.6-6.6S42.2,29.1,42.2,32.7z"/>
	<path class="st7" d="M40.7,32.8c0,2.4-1.4,4.4-3.1,4.4s-3.1-2-3.1-4.4s1.4-4.4,3.1-4.4S40.7,30.4,40.7,32.8z"/>
	<path class="st6" d="M67.1,32.7c0,3.6-2.1,6.6-4.6,6.6c-2.6,0-4.6-3-4.6-6.6s2.1-6.6,4.6-6.6C64.9,26.1,67.1,29.1,67.1,32.7z"/>
	<path class="st7" d="M65.5,32.8c0,2.4-1.4,4.4-3.1,4.4s-3.1-2-3.1-4.4s1.4-4.4,3.1-4.4C64.2,28.4,65.5,30.4,65.5,32.8z M50.8,38.5
		c0,0.6-0.5,1.1-1.2,1.1c-0.6,0-1.2-0.5-1.2-1.1s0.5-1.2,1.2-1.2C50.3,37.4,50.8,37.9,50.8,38.5z M47,41.4c-0.1-0.2,0-0.4,0.2-0.5
		s0.4,0,0.5,0.2c0.3,0.8,1.1,1.4,2,1.4s1.7-0.6,2-1.4c0.1-0.2,0.3-0.3,0.5-0.2s0.3,0.3,0.2,0.5c-0.4,1.1-1.5,1.9-2.7,1.9
		C48.4,43.3,47.4,42.5,47,41.4z"/>
	<path class="st8" d="M21.2,46.6c0,0.3-0.4,0.5-0.8,0.5s-0.8-0.2-0.8-0.5s0.4-0.5,0.8-0.5C20.9,46.1,21.2,46.3,21.2,46.6z
		 M23.5,47.9c0,0.3-0.4,0.5-0.8,0.5s-0.8-0.2-0.8-0.5s0.4-0.5,0.8-0.5C23.1,47.3,23.5,47.5,23.5,47.9z M24.8,49.5
		c0,0.3-0.3,0.5-0.8,0.5c-0.4,0-0.8-0.2-0.8-0.5S23.5,49,24,49C24.5,48.9,24.8,49.2,24.8,49.5z M26.1,51.3c0,0.3-0.4,0.5-0.8,0.5
		s-0.8-0.2-0.8-0.5s0.4-0.5,0.8-0.5C25.7,50.7,26.1,51,26.1,51.3z M27.5,53c0,0.3-0.4,0.5-0.8,0.5s-0.8-0.2-0.8-0.5s0.4-0.5,0.8-0.5
		S27.5,52.7,27.5,53z M29.3,54.5c0,0.3-0.4,0.5-0.8,0.5s-0.8-0.2-0.8-0.5s0.4-0.5,0.8-0.5C29,53.9,29.3,54.2,29.3,54.5z M31.9,55.4
		c0,0.3-0.4,0.5-0.8,0.5s-0.8-0.2-0.8-0.5s0.4-0.5,0.8-0.5C31.6,54.9,31.9,55.1,31.9,55.4z M34.5,55.4c0,0.3-0.4,0.5-0.8,0.5
		s-0.8-0.2-0.8-0.5s0.3-0.5,0.8-0.5S34.5,55.1,34.5,55.4z M37.2,55c0,0.3-0.3,0.5-0.8,0.5c-0.4,0-0.8-0.2-0.8-0.5s0.4-0.5,0.8-0.5
		C36.8,54.5,37.2,54.7,37.2,55z"/>
</g>
<text transform="matrix(1 0 0 1 104.5258 47.8573)" style="font-family:'Ubuntu-Bold'; font-size:30px;">GitJobs </text>
<text transform="matrix(1 0 0 1 104.5258 73.8573)" style="fill:#444444; font-family:'Ubuntu-Regular'; font-size:30px;">Explorer</text>
</svg>
